English-Latin.ufo
<glyph name="dollar" format="2">
  <advance width="607"/>
  <unicode hex="0024"/>
  <outline>
    <contour>
      <point x="274" y="-89" type="line"/>
      <point x="274" y="-12" type="line"/>
      <point x="138" y="-3"/>
      <point x="55" y="74"/>
      <point x="48" y="184" type="curve"/>
      <point x="138" y="184" type="line"/>
      <point x="145" y="114"/>
      <point x="202" y="76"/>
      <point x="274" y="68" type="curve"/>
      <point x="274" y="327" type="line"/>
      <point x="247" y="334" type="line"/>
      <point x="136" y="366"/>
      <point x="67" y="423"/>
      <point x="67" y="519" type="curve" smooth="yes"/>
      <point x="67" y="627"/>
      <point x="155" y="702"/>
      <point x="274" y="715" type="curve"/>
      <point x="274" y="796" type="line"/>
      <point x="331" y="796" type="line"/>
      <point x="331" y="717" type="line"/>
      <point x="457" y="709"/>
      <point x="546" y="631"/>
      <point x="550" y="529" type="curve"/>
      <point x="464" y="529" type="line"/>
      <point x="457" y="592"/>
      <point x="404" y="631"/>
      <point x="331" y="638" type="curve"/>
      <point x="331" y="396" type="line"/>
      <point x="359" y="388" type="line" smooth="yes"/>
      <point x="435" y="368"/>
      <point x="560" y="324"/>
      <point x="560" y="192" type="curve" smooth="yes"/>
      <point x="560" y="84"/>
      <point x="477" y="-2"/>
      <point x="331" y="-12" type="curve"/>
      <point x="331" y="-89" type="line"/>
    </contour>
    <contour>
      <point x="152" y="522" type="curve" smooth="yes"/>
      <point x="152" y="454"/>
      <point x="221" y="426"/>
      <point x="274" y="411" type="curve"/>
      <point x="274" y="637" type="line"/>
      <point x="199" y="627"/>
      <point x="152" y="581"/>
    </contour>
    <contour>
      <point x="331" y="69" type="line"/>
      <point x="414" y="77"/>
      <point x="474" y="125"/>
      <point x="474" y="194" type="curve" smooth="yes"/>
      <point x="474" y="262"/>
      <point x="408" y="290"/>
      <point x="334" y="311" type="curve"/>
      <point x="331" y="312" type="line"/>
    </contour>
  </outline>
</glyph>
<glyph name="parenleft" format="2">
  <advance width="340"/>
  <unicode hex="0028"/>
  <outline>
    <contour>
      <point x="89" y="270" type="curve" smooth="yes"/>
      <point x="90" y="455"/>
      <point x="139" y="607"/>
      <point x="229" y="737" type="curve"/>
      <point x="304" y="737" type="line"/>
      <point x="238" y="640"/>
      <point x="176" y="444"/>
      <point x="176" y="270" type="curve" smooth="yes"/>
      <point x="176" y="96"/>
      <point x="238" y="-102"/>
      <point x="304" y="-199" type="curve"/>
      <point x="229" y="-199" type="line"/>
      <point x="139" y="-68"/>
      <point x="90" y="85"/>
    </contour>
  </outline>
</glyph>
<glyph name="asterisk" format="2">
  <advance width="470"/>
  <unicode hex="002A"/>
  <outline>
    <contour>
      <point x="269" y="310" type="line"/>
      <point x="202" y="310" type="line"/>
      <point x="208" y="461" type="line"/>
      <point x="79" y="380" type="line"/>
      <point x="46" y="438" type="line"/>
      <point x="181" y="508" type="line"/>
      <point x="46" y="579" type="line"/>
      <point x="79" y="637" type="line"/>
      <point x="208" y="556" type="line"/>
      <point x="202" y="707" type="line"/>
      <point x="269" y="707" type="line"/>
      <point x="263" y="556" type="line"/>
      <point x="392" y="637" type="line"/>
      <point x="425" y="579" type="line"/>
      <point x="291" y="508" type="line"/>
      <point x="425" y="438" type="line"/>
      <point x="392" y="380" type="line"/>
      <point x="263" y="461" type="line"/>
    </contour>
  </outline>
</glyph>
<glyph name="plus" format="2">
  <advance width="626"/>
  <unicode hex="002B"/>
  <outline>
    <contour>
      <point x="273" y="48" type="line"/>
      <point x="273" y="237" type="line"/>
      <point x="85" y="237" type="line"/>
      <point x="85" y="316" type="line"/>
      <point x="273" y="316" type="line"/>
      <point x="273" y="505" type="line"/>
      <point x="353" y="505" type="line"/>
      <point x="353" y="316" type="line"/>
      <point x="542" y="316" type="line"/>
      <point x="542" y="237" type="line"/>
      <point x="353" y="237" type="line"/>
      <point x="353" y="48" type="line"/>
    </contour>
  </outline>
</glyph>
<glyph name="hyphen" format="2">
  <advance width="432"/>
  <unicode hex="002D"/>
  <unicode hex="00AD"/>
  <unicode hex="2010"/>
  <unicode hex="2011"/>
  <outline>
    <contour>
      <point x="371" y="341" type="line"/>
      <point x="371" y="264" type="line"/>
      <point x="62" y="264" type="line"/>
      <point x="62" y="341" type="line"/>
    </contour>
  </outline>
</glyph>
<glyph name="zero" format="2">
  <advance width="595"/>
  <unicode hex="0030"/>
  <outline>
    <contour>
      <point x="298" y="-10" type="curve" smooth="yes"/>
      <point x="141" y="-10"/>
      <point x="51" y="123"/>
      <point x="51" y="354" type="curve" smooth="yes"/>
      <point x="51" y="583"/>
      <point x="143" y="717"/>
      <point x="298" y="717" type="curve" smooth="yes"/>
      <point x="453" y="717"/>
      <point x="545" y="583"/>
      <point x="545" y="354" type="curve" smooth="yes"/>
      <point x="545" y="123"/>
      <point x="454" y="-10"/>
    </contour>
    <contour>
      <point x="298" y="68" type="curve" smooth="yes"/>
      <point x="400" y="68"/>
      <point x="459" y="171"/>
      <point x="459" y="354" type="curve" smooth="yes"/>
      <point x="459" y="537"/>
      <point x="400" y="641"/>
      <point x="298" y="641" type="curve" smooth="yes"/>
      <point x="196" y="641"/>
      <point x="136" y="537"/>
      <point x="136" y="354" type="curve" smooth="yes"/>
      <point x="136" y="171"/>
      <point x="195" y="68"/>
    </contour>
  </outline>
</glyph>
<glyph name="one" format="2">
  <advance width="438"/>
  <unicode hex="0031"/>
  <outline>
    <contour>
      <point x="316" y="707" type="line"/>
      <point x="316" y="0" type="line"/>
      <point x="228" y="0" type="line"/>
      <point x="228" y="615" type="line"/>
      <point x="224" y="615" type="line"/>
      <point x="52" y="501" type="line"/>
      <point x="52" y="590" type="line"/>
      <point x="228" y="707" type="line"/>
    </contour>
  </outline>
</glyph>
<glyph name="four" format="2">
  <advance width="624"/>
  <unicode hex="0034"/>
  <outline>
    <contour>
      <point x="49" y="145" type="line"/>
      <point x="49" y="217" type="line"/>
      <point x="367" y="707" type="line"/>
      <point x="476" y="707" type="line"/>
      <point x="476" y="222" type="line"/>
      <point x="574" y="222" type="line"/>
      <point x="574" y="145" type="line"/>
      <point x="476" y="145" type="line"/>
      <point x="476" y="0" type="line"/>
      <point x="392" y="0" type="line"/>
      <point x="392" y="145" type="line"/>
    </contour>
    <contour>
      <point x="144" y="222" type="line"/>
      <point x="392" y="222" type="line"/>
      <point x="392" y="596" type="line"/>
      <point x="383" y="596" type="line"/>
      <point x="144" y="228" type="line"/>
    </contour>
  </outline>
</glyph>
<glyph name="six" format="2">
  <advance width="613"/>
  <unicode hex="0036"/>
  <outline>
    <contour>
      <point x="312" y="-10" type="curve" smooth="yes"/>
      <point x="189" y="-8"/>
      <point x="55" y="64"/>
      <point x="55" y="326" type="curve" smooth="yes"/>
      <point x="55" y="576"/>
      <point x="157" y="717"/>
      <point x="323" y="717" type="curve" smooth="yes"/>
      <point x="447" y="717"/>
      <point x="534" y="640"/>
      <point x="553" y="529" type="curve"/>
      <point x="466" y="529" type="line"/>
      <point x="449" y="591"/>
      <point x="402" y="639"/>
      <point x="323" y="639" type="curve" smooth="yes"/>
      <point x="207" y="639"/>
      <point x="138" y="539"/>
      <point x="138" y="369" type="curve"/>
      <point x="146" y="369" type="line"/>
      <point x="187" y="428"/>
      <point x="252" y="463"/>
      <point x="328" y="463" type="curve" smooth="yes"/>
      <point x="454" y="463"/>
      <point x="559" y="366"/>
      <point x="559" y="229" type="curve" smooth="yes"/>
      <point x="559" y="96"/>
      <point x="460" y="-11"/>
    </contour>
    <contour>
      <point x="312" y="67" type="curve" smooth="yes"/>
      <point x="404" y="67"/>
      <point x="473" y="140"/>
      <point x="474" y="228" type="curve" smooth="yes"/>
      <point x="473" y="315"/>
      <point x="407" y="386"/>
      <point x="314" y="386" type="curve" smooth="yes"/>
      <point x="221" y="386"/>
      <point x="150" y="311"/>
      <point x="149" y="227" type="curve" smooth="yes"/>
      <point x="149" y="144"/>
      <point x="217" y="67"/>
    </contour>
  </outline>
</glyph>
<glyph name="equal" format="2">
  <advance width="626"/>
  <unicode hex="003D"/>
  <outline>
    <contour>
      <point x="101" y="341" type="line"/>
      <point x="101" y="418" type="line"/>
      <point x="527" y="418" type="line"/>
      <point x="527" y="341" type="line"/>
    </contour>
    <contour>
      <point x="101" y="136" type="line"/>
      <point x="101" y="212" type="line"/>
      <point x="527" y="212" type="line"/>
      <point x="527" y="136" type="line"/>
    </contour>
  </outline>
</glyph>
<glyph name="greater" format="2">
  <advance width="626"/>
  <unicode hex="003E"/>
  <outline>
    <contour>
      <point x="537" y="247" type="line"/>
      <point x="91" y="21" type="line"/>
      <point x="91" y="112" type="line"/>
      <point x="429" y="273" type="line"/>
      <point x="429" y="279" type="line"/>
      <point x="91" y="441" type="line"/>
      <point x="91" y="532" type="line"/>
      <point x="537" y="306" type="line"/>
    </contour>
  </outline>
</glyph>
<glyph name="question" format="2">
  <advance width="479"/>
  <unicode hex="003F"/>
  <outline>
    <contour>
      <point x="174" y="204" type="line" smooth="yes"/>
      <point x="175" y="335"/>
      <point x="215" y="375"/>
      <point x="282" y="416" type="curve" smooth="yes"/>
      <point x="322" y="440"/>
      <point x="354" y="479"/>
      <point x="354" y="534" type="curve" smooth="yes"/>
      <point x="354" y="600"/>
      <point x="301" y="643"/>
      <point x="237" y="643" type="curve" smooth="yes"/>
      <point x="181" y="643"/>
      <point x="126" y="609"/>
      <point x="120" y="529" type="curve"/>
      <point x="31" y="529" type="line"/>
      <point x="36" y="647"/>
      <point x="126" y="717"/>
      <point x="237" y="717" type="curve" smooth="yes"/>
      <point x="359" y="717"/>
      <point x="439" y="637"/>
      <point x="439" y="530" type="curve" smooth="yes"/>
      <point x="439" y="454"/>
      <point x="404" y="400"/>
      <point x="343" y="363" type="curve" smooth="yes"/>
      <point x="282" y="326"/>
      <point x="260" y="289"/>
      <point x="258" y="204" type="curve"/>
      <point x="258" y="199" type="line"/>
      <point x="174" y="199" type="line"/>
    </contour>
    <contour>
      <point x="219" y="-6" type="curve" smooth="yes"/>
      <point x="185" y="-6"/>
      <point x="155" y="23"/>
      <point x="156" y="58" type="curve" smooth="yes"/>
      <point x="155" y="92"/>
      <point x="185" y="120"/>
      <point x="219" y="120" type="curve" smooth="yes"/>
      <point x="253" y="120"/>
      <point x="281" y="92"/>
      <point x="281" y="58" type="curve" smooth="yes"/>
      <point x="281" y="23"/>
      <point x="253" y="-6"/>
    </contour>
  </outline>
</glyph>
<glyph name="at" format="2">
  <advance width="879"/>
  <unicode hex="0040"/>
  <outline>
    <contour>
      <point x="417" y="93" type="curve" smooth="yes"/>
      <point x="319" y="93"/>
      <point x="248" y="172"/>
      <point x="248" y="299" type="curve" smooth="yes"/>
      <point x="248" y="425"/>
      <point x="320" y="504"/>
      <point x="418" y="504" type="curve" smooth="yes"/>
      <point x="488" y="504"/>
      <point x="517" y="459"/>
      <point x="529" y="437" type="curve"/>
      <point x="534" y="437" type="line"/>
      <point x="534" y="496" type="line"/>
      <point x="608" y="496" type="line"/>
      <point x="608" y="211" type="line" smooth="yes"/>
      <point x="609" y="173"/>
      <point x="626" y="154"/>
      <point x="657" y="154" type="curve" smooth="yes"/>
      <point x="718" y="154"/>
      <point x="758" y="224"/>
      <point x="759" y="326" type="curve" smooth="yes"/>
      <point x="760" y="511"/>
      <point x="626" y="631"/>
      <point x="439" y="631" type="curve" smooth="yes"/>
      <point x="246" y="630"/>
      <point x="121" y="481"/>
      <point x="121" y="299" type="curve" smooth="yes"/>
      <point x="121" y="101"/>
      <point x="230" y="-36"/>
      <point x="436" y="-34" type="curve" smooth="yes"/>
      <point x="504" y="-33"/>
      <point x="548" y="-30"/>
      <point x="608" y="-13" type="curve"/>
      <point x="608" y="-79" type="line"/>
      <point x="557" y="-93"/>
      <point x="500" y="-102"/>
      <point x="436" y="-102" type="curve" smooth="yes"/>
      <point x="198" y="-102"/>
      <point x="51" y="51"/>
      <point x="51" y="299" type="curve" smooth="yes"/>
      <point x="50" y="529"/>
      <point x="211" y="698"/>
      <point x="439" y="698" type="curve" smooth="yes"/>
      <point x="672" y="698"/>
      <point x="830" y="539"/>
      <point x="829" y="329" type="curve" smooth="yes"/>
      <point x="829" y="178"/>
      <point x="751" y="89"/>
      <point x="652" y="89" type="curve" smooth="yes"/>
      <point x="590" y="89"/>
      <point x="544" y="124"/>
      <point x="541" y="169" type="curve"/>
      <point x="534" y="169" type="line"/>
      <point x="522" y="148"/>
      <point x="493" y="93"/>
    </contour>
    <contour>
      <point x="430" y="164" type="curve" smooth="yes"/>
      <point x="499" y="164"/>
      <point x="534" y="219"/>
      <point x="535" y="300" type="curve" smooth="yes"/>
      <point x="534" y="379"/>
      <point x="500" y="433"/>
      <point x="430" y="433" type="curve" smooth="yes"/>
      <point x="362" y="433"/>
      <point x="324" y="374"/>
      <point x="324" y="300" type="curve" smooth="yes"/>
      <point x="324" y="224"/>
      <point x="363" y="164"/>
    </contour>
  </outline>
</glyph>
<glyph name="D" format="2">
  <advance width="685"/>
  <unicode hex="0044"/>
  <outline>
    <contour>
      <point x="298" y="0" type="curve" smooth="yes"/>
      <point x="78" y="0" type="line"/>
      <point x="78" y="707" type="line"/>
      <point x="307" y="707" type="line" smooth="yes"/>
      <point x="513" y="707"/>
      <point x="635" y="574"/>
      <point x="635" y="354" type="curve" smooth="yes"/>
      <point x="635" y="133"/>
      <point x="513" y="0"/>
    </contour>
    <contour>
      <point x="166" y="78" type="line"/>
      <point x="292" y="78" type="line" smooth="yes"/>
      <point x="466" y="78"/>
      <point x="549" y="182"/>
      <point x="549" y="354" type="curve" smooth="yes"/>
      <point x="549" y="525"/>
      <point x="466" y="629"/>
      <point x="301" y="629" type="curve" smooth="yes"/>
      <point x="166" y="629" type="line"/>
    </contour>
  </outline>
</glyph>
<glyph name="E" format="2">
  <advance width="567"/>
  <unicode hex="0045"/>
  <outline>
    <contour>
      <point x="78" y="0" type="line"/>
      <point x="78" y="707" type="line"/>
      <point x="507" y="707" type="line"/>
      <point x="507" y="629" type="line"/>
      <point x="166" y="629" type="line"/>
      <point x="166" y="393" type="line"/>
      <point x="484" y="393" type="line"/>
      <point x="484" y="315" type="line"/>
      <point x="166" y="315" type="line"/>
      <point x="166" y="78" type="line"/>
      <point x="512" y="78" type="line"/>
      <point x="512" y="0" type="line"/>
    </contour>
  </outline>
</glyph>
<glyph name="F" format="2">
  <advance width="556"/>
  <unicode hex="0046"/>
  <outline>
    <contour>
      <point x="78" y="0" type="line"/>
      <point x="78" y="707" type="line"/>
      <point x="504" y="707" type="line"/>
      <point x="504" y="629" type="line"/>
      <point x="166" y="629" type="line"/>
      <point x="166" y="393" type="line"/>
      <point x="472" y="393" type="line"/>
      <point x="472" y="315" type="line"/>
      <point x="166" y="315" type="line"/>
      <point x="166" y="0" type="line"/>
    </contour>
  </outline>
</glyph>
<glyph name="L" format="2">
  <advance width="533"/>
  <unicode hex="004C"/>
  <outline>
    <contour>
      <point x="78" y="0" type="line"/>
      <point x="78" y="707" type="line"/>
      <point x="166" y="707" type="line"/>
      <point x="166" y="78" type="line"/>
      <point x="494" y="78" type="line"/>
      <point x="494" y="0" type="line"/>
    </contour>
  </outline>
</glyph>
<glyph name="T" format="2">
  <advance width="611"/>
  <unicode hex="0054"/>
  <outline>
    <contour>
      <point x="39" y="629" type="line"/>
      <point x="39" y="707" type="line"/>
      <point x="572" y="707" type="line"/>
      <point x="572" y="629" type="line"/>
      <point x="351" y="629" type="line"/>
      <point x="351" y="0" type="line"/>
      <point x="262" y="0" type="line"/>
      <point x="262" y="629" type="line"/>
    </contour>
  </outline>
</glyph>
<glyph name="V" format="2">
  <advance width="645"/>
  <unicode hex="0056"/>
  <outline>
    <contour>
      <point x="110" y="707" type="line"/>
      <point x="318" y="114" type="line"/>
      <point x="326" y="114" type="line"/>
      <point x="535" y="707" type="line"/>
      <point x="628" y="707" type="line"/>
      <point x="369" y="0" type="line"/>
      <point x="276" y="0" type="line"/>
      <point x="18" y="707" type="line"/>
    </contour>
  </outline>
</glyph>
<glyph name="W" format="2">
  <advance width="915"/>
  <unicode hex="0057"/>
  <outline>
    <contour>
      <point x="209" y="0" type="line"/>
      <point x="16" y="707" type="line"/>
      <point x="104" y="707" type="line"/>
      <point x="252" y="135" type="line"/>
      <point x="259" y="135" type="line"/>
      <point x="408" y="707" type="line"/>
      <point x="507" y="707" type="line"/>
      <point x="657" y="135" type="line"/>
      <point x="663" y="135" type="line"/>
      <point x="811" y="707" type="line"/>
      <point x="899" y="707" type="line"/>
      <point x="706" y="0" type="line"/>
      <point x="615" y="0" type="line"/>
      <point x="461" y="560" type="line"/>
      <point x="455" y="560" type="line"/>
      <point x="300" y="0" type="line"/>
    </contour>
  </outline>
</glyph>
<glyph name="X" format="2">
  <advance width="612"/>
  <unicode hex="0058"/>
  <outline>
    <contour>
      <point x="123" y="707" type="line"/>
      <point x="303" y="415" type="line"/>
      <point x="309" y="415" type="line"/>
      <point x="489" y="707" type="line"/>
      <point x="593" y="707" type="line"/>
      <point x="371" y="354" type="line"/>
      <point x="593" y="0" type="line"/>
      <point x="489" y="0" type="line"/>
      <point x="309" y="286" type="line"/>
      <point x="303" y="286" type="line"/>
      <point x="122" y="0" type="line"/>
      <point x="19" y="0" type="line"/>
      <point x="246" y="354" type="line"/>
      <point x="19" y="707" type="line"/>
    </contour>
  </outline>
</glyph>
<glyph name="bracketleft" format="2">
  <advance width="340"/>
  <unicode hex="005B"/>
  <outline>
    <contour>
      <point x="107" y="-199" type="line"/>
      <point x="107" y="737" type="line"/>
      <point x="314" y="737" type="line"/>
      <point x="314" y="668" type="line"/>
      <point x="187" y="668" type="line"/>
      <point x="187" y="-129" type="line"/>
      <point x="314" y="-129" type="line"/>
      <point x="314" y="-199" type="line"/>
    </contour>
  </outline>
</glyph>
<glyph name="underscore" format="2">
  <advance width="424"/>
  <unicode hex="005F"/>
  <outline>
    <contour>
      <point x="434" y="0" type="line"/>
      <point x="434" y="-77" type="line"/>
      <point x="-9" y="-77" type="line"/>
      <point x="-9" y="0" type="line"/>
    </contour>
  </outline>
</glyph>
<glyph name="c" format="2">
  <advance width="529"/>
  <unicode hex="0063"/>
  <outline>
    <contour>
      <point x="284" y="-11" type="curve" smooth="yes"/>
      <point x="134" y="-11"/>
      <point x="42" y="104"/>
      <point x="42" y="263" type="curve" smooth="yes"/>
      <point x="42" y="424"/>
      <point x="137" y="537"/>
      <point x="282" y="537" type="curve" smooth="yes"/>
      <point x="395" y="537"/>
      <point x="479" y="471"/>
      <point x="493" y="370" type="curve"/>
      <point x="409" y="370" type="line"/>
      <point x="397" y="419"/>
      <point x="354" y="463"/>
      <point x="284" y="463" type="curve" smooth="yes"/>
      <point x="189" y="463"/>
      <point x="126" y="385"/>
      <point x="126" y="266" type="curve" smooth="yes"/>
      <point x="126" y="143"/>
      <point x="187" y="64"/>
      <point x="284" y="64" type="curve" smooth="yes"/>
      <point x="346" y="64"/>
      <point x="394" y="97"/>
      <point x="409" y="156" type="curve"/>
      <point x="493" y="156" type="line"/>
      <point x="479" y="61"/>
      <point x="402" y="-11"/>
    </contour>
  </outline>
</glyph>
<glyph name="h" format="2">
  <advance width="562"/>
  <unicode hex="0068"/>
  <outline>
    <contour>
      <point x="151" y="318" type="curve" smooth="yes"/>
      <point x="151" y="0" type="line"/>
      <point x="67" y="0" type="line"/>
      <point x="67" y="707" type="line"/>
      <point x="151" y="707" type="line"/>
      <point x="151" y="447" type="line"/>
      <point x="158" y="447" type="line"/>
      <point x="182" y="502"/>
      <point x="230" y="537"/>
      <point x="314" y="537" type="curve" smooth="yes"/>
      <point x="422" y="537"/>
      <point x="495" y="473"/>
      <point x="495" y="337" type="curve" smooth="yes"/>
      <point x="495" y="0" type="line"/>
      <point x="411" y="0" type="line"/>
      <point x="411" y="331" type="line" smooth="yes"/>
      <point x="411" y="414"/>
      <point x="365" y="462"/>
      <point x="289" y="462" type="curve" smooth="yes"/>
      <point x="210" y="462"/>
      <point x="151" y="410"/>
    </contour>
  </outline>
</glyph>
<glyph name="i" format="2">
  <advance width="217"/>
  <unicode hex="0069"/>
  <outline>
    <contour>
      <point x="67" y="0" type="line"/>
      <point x="67" y="530" type="line"/>
      <point x="151" y="530" type="line"/>
      <point x="151" y="0" type="line"/>
    </contour>
    <contour>
      <point x="109" y="618" type="curve" smooth="yes"/>
      <point x="77" y="618"/>
      <point x="51" y="643"/>
      <point x="51" y="674" type="curve" smooth="yes"/>
      <point x="51" y="705"/>
      <point x="77" y="729"/>
      <point x="109" y="729" type="curve" smooth="yes"/>
      <point x="141" y="729"/>
      <point x="169" y="705"/>
      <point x="169" y="674" type="curve" smooth="yes"/>
      <point x="169" y="643"/>
      <point x="141" y="618"/>
    </contour>
  </outline>
</glyph>
<glyph name="r" format="2">
  <advance width="349"/>
  <unicode hex="0072"/>
  <outline>
    <contour>
      <point x="67" y="0" type="line"/>
      <point x="67" y="530" type="line"/>
      <point x="148" y="530" type="line"/>
      <point x="148" y="449" type="line"/>
      <point x="154" y="449" type="line"/>
      <point x="174" y="503"/>
      <point x="229" y="539"/>
      <point x="291" y="539" type="curve" smooth="yes"/>
      <point x="304" y="539"/>
      <point x="325" y="538"/>
      <point x="335" y="537" type="curve"/>
      <point x="335" y="452" type="line"/>
      <point x="329" y="454"/>
      <point x="305" y="458"/>
      <point x="284" y="458" type="curve" smooth="yes"/>
      <point x="208" y="458"/>
      <point x="151" y="405"/>
      <point x="151" y="334" type="curve" smooth="yes"/>
      <point x="151" y="0" type="line"/>
    </contour>
  </outline>
</glyph>
<glyph name="s" format="2">
  <advance width="496"/>
  <unicode hex="0073"/>
  <outline>
    <contour>
      <point x="362" y="393" type="line"/>
      <point x="350" y="437"/>
      <point x="317" y="466"/>
      <point x="255" y="466" type="curve" smooth="yes"/>
      <point x="190" y="466"/>
      <point x="143" y="431"/>
      <point x="143" y="386" type="curve" smooth="yes"/>
      <point x="143" y="351"/>
      <point x="171" y="327"/>
      <point x="233" y="312" type="curve" smooth="yes"/>
      <point x="312" y="292" type="line" smooth="yes"/>
      <point x="407" y="270"/>
      <point x="454" y="222"/>
      <point x="454" y="148" type="curve" smooth="yes"/>
      <point x="454" y="56"/>
      <point x="379" y="-11"/>
      <point x="246" y="-11" type="curve" smooth="yes"/>
      <point x="127" y="-11"/>
      <point x="56" y="42"/>
      <point x="42" y="139" type="curve"/>
      <point x="130" y="139" type="line"/>
      <point x="140" y="87"/>
      <point x="178" y="62"/>
      <point x="244" y="62" type="curve" smooth="yes"/>
      <point x="319" y="62"/>
      <point x="367" y="94"/>
      <point x="367" y="144" type="curve" smooth="yes"/>
      <point x="367" y="181"/>
      <point x="341" y="206"/>
      <point x="280" y="220" type="curve" smooth="yes"/>
      <point x="200" y="238" type="line" smooth="yes"/>
      <point x="107" y="259"/>
      <point x="59" y="311"/>
      <point x="59" y="381" type="curve" smooth="yes"/>
      <point x="59" y="472"/>
      <point x="138" y="537"/>
      <point x="255" y="537" type="curve" smooth="yes"/>
      <point x="364" y="537"/>
      <point x="433" y="479"/>
      <point x="444" y="393" type="curve"/>
    </contour>
  </outline>
</glyph>
<glyph name="braceleft" format="2">
  <advance width="340"/>
  <unicode hex="007B"/>
  <outline>
    <contour>
      <point x="28" y="312" type="line"/>
      <point x="105" y="312"/>
      <point x="132" y="341"/>
      <point x="132" y="416" type="curve" smooth="yes"/>
      <point x="132" y="553" type="line" smooth="yes"/>
      <point x="132" y="681"/>
      <point x="177" y="737"/>
      <point x="314" y="737" type="curve"/>
      <point x="314" y="668" type="line"/>
      <point x="234" y="668"/>
      <point x="209" y="632"/>
      <point x="209" y="552" type="curve" smooth="yes"/>
      <point x="209" y="389" type="line" smooth="yes"/>
      <point x="209" y="333"/>
      <point x="191" y="290"/>
      <point x="111" y="274" type="curve"/>
      <point x="111" y="264" type="line"/>
      <point x="191" y="248"/>
      <point x="209" y="206"/>
      <point x="209" y="149" type="curve" smooth="yes"/>
      <point x="209" y="-13" type="line" smooth="yes"/>
      <point x="209" y="-93"/>
      <point x="234" y="-129"/>
      <point x="314" y="-129" type="curve"/>
      <point x="314" y="-199" type="line"/>
      <point x="177" y="-199"/>
      <point x="132" y="-143"/>
      <point x="132" y="-14" type="curve" smooth="yes"/>
      <point x="132" y="122" type="line" smooth="yes"/>
      <point x="132" y="197"/>
      <point x="105" y="228"/>
      <point x="28" y="228" type="curve"/>
    </contour>
  </outline>
</glyph>
<glyph name="braceright" format="2">
  <advance width="340"/>
  <unicode hex="007D"/>
  <outline>
    <contour>
      <point x="312" y="228" type="line"/>
      <point x="235" y="228"/>
      <point x="209" y="197"/>
      <point x="209" y="122" type="curve" smooth="yes"/>
      <point x="209" y="-14" type="line" smooth="yes"/>
      <point x="209" y="-143"/>
      <point x="163" y="-199"/>
      <point x="26" y="-199" type="curve"/>
      <point x="26" y="-129" type="line"/>
      <point x="106" y="-129"/>
      <point x="132" y="-93"/>
      <point x="132" y="-13" type="curve" smooth="yes"/>
      <point x="132" y="149" type="line" smooth="yes"/>
      <point x="132" y="206"/>
      <point x="149" y="248"/>
      <point x="229" y="264" type="curve"/>
      <point x="229" y="274" type="line"/>
      <point x="149" y="290"/>
      <point x="132" y="333"/>
      <point x="132" y="389" type="curve" smooth="yes"/>
      <point x="132" y="552" type="line" smooth="yes"/>
      <point x="132" y="632"/>
      <point x="106" y="668"/>
      <point x="26" y="668" type="curve"/>
      <point x="26" y="737" type="line"/>
      <point x="163" y="737"/>
      <point x="209" y="681"/>
      <point x="209" y="553" type="curve" smooth="yes"/>
      <point x="209" y="416" type="line" smooth="yes"/>
      <point x="209" y="341"/>
      <point x="235" y="312"/>
      <point x="312" y="312" type="curve"/>
    </contour>
  </outline>
</glyph>
<glyph name="exclamdown" format="2">
  <advance width="256"/>
  <unicode hex="00A1"/>
  <outline>
    <contour>
      <point x="176" y="-180" type="line"/>
      <point x="80" y="-180" type="line"/>
      <point x="87" y="328" type="line"/>
      <point x="169" y="328" type="line"/>
    </contour>
    <contour>
      <point x="128" y="533" type="curve" smooth="yes"/>
      <point x="162" y="533"/>
      <point x="190" y="505"/>
      <point x="190" y="470" type="curve" smooth="yes"/>
      <point x="190" y="436"/>
      <point x="162" y="407"/>
      <point x="128" y="407" type="curve" smooth="yes"/>
      <point x="94" y="407"/>
      <point x="64" y="436"/>
      <point x="65" y="470" type="curve" smooth="yes"/>
      <point x="64" y="505"/>
      <point x="94" y="533"/>
    </contour>
  </outline>
</glyph>
<glyph name="cent" format="2">
  <advance width="529"/>
  <unicode hex="00A2"/>
  <outline>
    <contour>
      <point x="250" y="0" type="line"/>
      <point x="250" y="82" type="line"/>
      <point x="120" y="98"/>
      <point x="42" y="207"/>
      <point x="42" y="354" type="curve" smooth="yes"/>
      <point x="42" y="503"/>
      <point x="124" y="610"/>
      <point x="250" y="626" type="curve"/>
      <point x="250" y="707" type="line"/>
      <point x="307" y="707" type="line"/>
      <point x="307" y="627" type="line"/>
      <point x="408" y="618"/>
      <point x="480" y="554"/>
      <point x="493" y="461" type="curve"/>
      <point x="409" y="461" type="line"/>
      <point x="399" y="504"/>
      <point x="364" y="544"/>
      <point x="307" y="553" type="curve"/>
      <point x="307" y="157" type="line"/>
      <point x="358" y="164"/>
      <point x="396" y="196"/>
      <point x="409" y="247" type="curve"/>
      <point x="493" y="247" type="line"/>
      <point x="480" y="159"/>
      <point x="412" y="89"/>
      <point x="307" y="81" type="curve"/>
      <point x="307" y="0" type="line"/>
    </contour>
    <contour>
      <point x="126" y="356" type="curve" smooth="yes"/>
      <point x="126" y="248"/>
      <point x="173" y="175"/>
      <point x="250" y="159" type="curve"/>
      <point x="250" y="551" type="line"/>
      <point x="174" y="533"/>
      <point x="126" y="460"/>
    </contour>
  </outline>
</glyph>
<glyph name="sterling" format="2">
  <advance width="600"/>
  <unicode hex="00A3"/>
  <outline>
    <contour>
      <point x="526" y="0" type="line"/>
      <point x="56" y="0" type="line"/>
      <point x="56" y="78" type="line"/>
      <point x="84" y="78" type="line" smooth="yes"/>
      <point x="126" y="78"/>
      <point x="136" y="152"/>
      <point x="134" y="194" type="curve" smooth="yes"/>
      <point x="132" y="274" type="line"/>
      <point x="53" y="274" type="line"/>
      <point x="53" y="355" type="line"/>
      <point x="129" y="355" type="line"/>
      <point x="124" y="494" type="line" smooth="yes"/>
      <point x="119" y="643"/>
      <point x="226" y="717"/>
      <point x="334" y="717" type="curve" smooth="yes"/>
      <point x="466" y="717"/>
      <point x="557" y="612"/>
      <point x="533" y="507" type="curve"/>
      <point x="450" y="528" type="line"/>
      <point x="460" y="599"/>
      <point x="400" y="639"/>
      <point x="339" y="639" type="curve" smooth="yes"/>
      <point x="273" y="639"/>
      <point x="206" y="594"/>
      <point x="207" y="494" type="curve"/>
      <point x="212" y="355" type="line"/>
      <point x="378" y="355" type="line"/>
      <point x="378" y="274" type="line"/>
      <point x="215" y="274" type="line"/>
      <point x="218" y="194" type="line" smooth="yes"/>
      <point x="220" y="148"/>
      <point x="213" y="107"/>
      <point x="192" y="78" type="curve"/>
      <point x="526" y="78" type="line"/>
    </contour>
  </outline>
</glyph>
<glyph name="currency" format="2">
  <advance width="688"/>
  <unicode hex="00A4"/>
  <outline>
    <contour>
      <point x="342" y="-10" type="curve" smooth="yes"/>
      <point x="275" y="-10"/>
      <point x="213" y="14"/>
      <point x="166" y="55" type="curve"/>
      <point x="104" y="-7" type="line"/>
      <point x="49" y="51" type="line"/>
      <point x="112" y="115" type="line"/>
      <point x="79" y="163"/>
      <point x="61" y="223"/>
      <point x="61" y="289" type="curve" smooth="yes"/>
      <point x="61" y="357"/>
      <point x="81" y="419"/>
      <point x="116" y="469" type="curve"/>
      <point x="49" y="537" type="line"/>
      <point x="104" y="596" type="line"/>
      <point x="172" y="527" type="line"/>
      <point x="219" y="564"/>
      <point x="278" y="586"/>
      <point x="342" y="586" type="curve" smooth="yes"/>
      <point x="407" y="586"/>
      <point x="468" y="563"/>
      <point x="516" y="526" type="curve"/>
      <point x="583" y="596" type="line"/>
      <point x="640" y="537" type="line"/>
      <point x="570" y="468" type="line"/>
      <point x="605" y="418"/>
      <point x="626" y="357"/>
      <point x="626" y="289" type="curve" smooth="yes"/>
      <point x="626" y="224"/>
      <point x="607" y="164"/>
      <point x="575" y="116" type="curve"/>
      <point x="640" y="51" type="line"/>
      <point x="583" y="-7" type="line"/>
      <point x="521" y="57" type="line"/>
      <point x="472" y="15"/>
      <point x="410" y="-10"/>
    </contour>
    <contour>
      <point x="342" y="67" type="curve" smooth="yes"/>
      <point x="455" y="67"/>
      <point x="546" y="167"/>
      <point x="546" y="289" type="curve" smooth="yes"/>
      <point x="546" y="411"/>
      <point x="455" y="511"/>
      <point x="342" y="511" type="curve" smooth="yes"/>
      <point x="229" y="511"/>
      <point x="137" y="411"/>
      <point x="137" y="289" type="curve" smooth="yes"/>
      <point x="137" y="167"/>
      <point x="229" y="67"/>
    </contour>
  </outline>
</glyph>
<glyph name="yen" format="2">
  <advance width="518"/>
  <unicode hex="00A5"/>
  <outline>
    <contour>
      <point x="104" y="707" type="line"/>
      <point x="258" y="371" type="line"/>
      <point x="262" y="371" type="line"/>
      <point x="415" y="707" type="line"/>
      <point x="513" y="707" type="line"/>
      <point x="337" y="353" type="line"/>
      <point x="458" y="353" type="line"/>
      <point x="458" y="289" type="line"/>
      <point x="305" y="289" type="line"/>
      <point x="304" y="287" type="line"/>
      <point x="304" y="216" type="line"/>
      <point x="458" y="216" type="line"/>
      <point x="458" y="152" type="line"/>
      <point x="304" y="152" type="line"/>
      <point x="304" y="0" type="line"/>
      <point x="216" y="0" type="line"/>
      <point x="216" y="152" type="line"/>
      <point x="61" y="152" type="line"/>
      <point x="61" y="216" type="line"/>
      <point x="216" y="216" type="line"/>
      <point x="216" y="285" type="line"/>
      <point x="214" y="289" type="line"/>
      <point x="61" y="289" type="line"/>
      <point x="61" y="353" type="line"/>
      <point x="183" y="353" type="line"/>
      <point x="6" y="707" type="line"/>
    </contour>
  </outline>
</glyph>
<glyph name="brokenbar" format="2">
  <advance width="305"/>
  <unicode hex="00A6"/>
  <outline>
    <contour>
      <point x="117" y="268" type="line"/>
      <point x="188" y="268" type="line"/>
      <point x="188" y="-100" type="line"/>
      <point x="117" y="-100" type="line"/>
    </contour>
    <contour>
      <point x="188" y="807" type="line"/>
      <point x="188" y="440" type="line"/>
      <point x="117" y="440" type="line"/>
      <point x="117" y="807" type="line"/>
    </contour>
  </outline>
</glyph>
<glyph name="guillemotleft" format="2">
  <advance width="513"/>
  <unicode hex="00AB"/>
  <outline>
    <contour>
      <point x="271" y="76" type="line"/>
      <point x="197" y="76" type="line"/>
      <point x="58" y="283" type="line"/>
      <point x="58" y="293" type="line"/>
      <point x="197" y="500" type="line"/>
      <point x="271" y="500" type="line"/>
      <point x="139" y="288" type="line"/>
    </contour>
    <contour>
      <point x="449" y="76" type="line"/>
      <point x="376" y="76" type="line"/>
      <point x="236" y="283" type="line"/>
      <point x="236" y="293" type="line"/>
      <point x="376" y="500" type="line"/>
      <point x="449" y="500" type="line"/>
      <point x="317" y="288" type="line"/>
    </contour>
  </outline>
</glyph>
<glyph name="logicalnot" format="2">
  <advance width="510"/>
  <unicode hex="00AC"/>
  <outline>
    <contour>
      <point x="454" y="383" type="line"/>
      <point x="454" y="178" type="line"/>
      <point x="358" y="178" type="line"/>
      <point x="358" y="301" type="line"/>
      <point x="58" y="301" type="line"/>
      <point x="58" y="383" type="line"/>
    </contour>
  </outline>
</glyph>
<glyph name="registered" format="2">
  <advance width="636"/>
  <unicode hex="00AE"/>
  <outline>
    <contour>
      <point x="222" y="316" type="line"/>
      <point x="222" y="571" type="line"/>
      <point x="351" y="571" type="line" smooth="yes"/>
      <point x="382" y="571"/>
      <point x="429" y="545"/>
      <point x="429" y="489" type="curve" smooth="yes"/>
      <point x="429" y="454"/>
      <point x="410" y="429"/>
      <point x="388" y="415" type="curve"/>
      <point x="439" y="316" type="line"/>
      <point x="377" y="316" type="line"/>
      <point x="333" y="402" type="line"/>
      <point x="277" y="402" type="line"/>
      <point x="277" y="316" type="line"/>
    </contour>
    <contour>
      <point x="318" y="164" type="curve" smooth="yes"/>
      <point x="166" y="164"/>
      <point x="42" y="288"/>
      <point x="42" y="440" type="curve" smooth="yes"/>
      <point x="42" y="592"/>
      <point x="166" y="717"/>
      <point x="318" y="717" type="curve" smooth="yes"/>
      <point x="470" y="717"/>
      <point x="595" y="592"/>
      <point x="595" y="440" type="curve" smooth="yes"/>
      <point x="595" y="288"/>
      <point x="470" y="164"/>
    </contour>
    <contour>
      <point x="318" y="230" type="curve" smooth="yes"/>
      <point x="434" y="230"/>
      <point x="528" y="324"/>
      <point x="528" y="440" type="curve" smooth="yes"/>
      <point x="528" y="556"/>
      <point x="434" y="650"/>
      <point x="318" y="650" type="curve" smooth="yes"/>
      <point x="202" y="650"/>
      <point x="108" y="556"/>
      <point x="108" y="440" type="curve" smooth="yes"/>
      <point x="108" y="324"/>
      <point x="202" y="230"/>
    </contour>
    <contour>
      <point x="277" y="444" type="line"/>
      <point x="329" y="444" type="line" smooth="yes"/>
      <point x="345" y="444"/>
      <point x="367" y="459"/>
      <point x="367" y="489" type="curve" smooth="yes"/>
      <point x="367" y="520"/>
      <point x="344" y="529"/>
      <point x="331" y="529" type="curve" smooth="yes"/>
      <point x="277" y="529" type="line"/>
    </contour>
  </outline>
</glyph>
<glyph name="plusminus" format="2">
  <advance width="626"/>
  <unicode hex="00B1"/>
  <outline>
    <contour>
      <point x="91" y="33" type="line"/>
      <point x="91" y="112" type="line"/>
      <point x="537" y="112" type="line"/>
      <point x="537" y="33" type="line"/>
    </contour>
    <contour>
      <point x="91" y="312" type="line"/>
      <point x="91" y="391" type="line"/>
      <point x="274" y="391" type="line"/>
      <point x="274" y="531" type="line"/>
      <point x="354" y="531" type="line"/>
      <point x="354" y="391" type="line"/>
      <point x="537" y="391" type="line"/>
      <point x="537" y="312" type="line"/>
      <point x="354" y="312" type="line"/>
      <point x="354" y="172" type="line"/>
      <point x="274" y="172" type="line"/>
      <point x="274" y="312" type="line"/>
    </contour>
  </outline>
</glyph>
<glyph name="acute" format="2">
  <advance width="468"/>
  <unicode hex="00B4"/>
  <outline>
    <contour>
      <point x="186" y="603" type="line"/>
      <point x="270" y="763" type="line"/>
      <point x="366" y="763" type="line"/>
      <point x="258" y="603" type="line"/>
    </contour>
  </outline>
</glyph>
<glyph name="cedilla" format="2">
  <advance width="246"/>
  <unicode hex="00B8"/>
  <outline>
    <contour>
      <point x="90" y="3" type="line"/>
      <point x="157" y="3" type="line"/>
      <point x="152" y="-24" type="line"/>
      <point x="188" y="-30"/>
      <point x="225" y="-52"/>
      <point x="225" y="-106" type="curve" smooth="yes"/>
      <point x="225" y="-166"/>
      <point x="174" y="-208"/>
      <point x="78" y="-208" type="curve"/>
      <point x="75" y="-153" type="line"/>
      <point x="119" y="-153"/>
      <point x="150" y="-140"/>
      <point x="150" y="-109" type="curve" smooth="yes"/>
      <point x="150" y="-78"/>
      <point x="129" y="-69"/>
      <point x="76" y="-64" type="curve"/>
    </contour>
  </outline>
</glyph>
<glyph name="uni00B9" format="2">
  <advance width="290"/>
  <unicode hex="00B9"/>
  <outline>
    <contour>
      <point x="143" y="354" type="line"/>
      <point x="143" y="701" type="line"/>
      <point x="140" y="701" type="line"/>
      <point x="31" y="629" type="line"/>
      <point x="31" y="703" type="line"/>
      <point x="144" y="777" type="line"/>
      <point x="216" y="777" type="line"/>
      <point x="216" y="354" type="line"/>
    </contour>
  </outline>
</glyph>
<glyph name="ordmasculine" format="2">
  <advance width="375"/>
  <unicode hex="00BA"/>
  <outline>
    <contour>
      <point x="188" y="347" type="curve" smooth="yes"/>
      <point x="88" y="347"/>
      <point x="21" y="421"/>
      <point x="21" y="529" type="curve" smooth="yes"/>
      <point x="21" y="636"/>
      <point x="88" y="711"/>
      <point x="188" y="711" type="curve" smooth="yes"/>
      <point x="288" y="711"/>
      <point x="354" y="636"/>
      <point x="354" y="529" type="curve" smooth="yes"/>
      <point x="354" y="421"/>
      <point x="288" y="347"/>
    </contour>
    <contour>
      <point x="188" y="405" type="curve" smooth="yes"/>
      <point x="245" y="405"/>
      <point x="277" y="459"/>
      <point x="277" y="529" type="curve" smooth="yes"/>
      <point x="277" y="600"/>
      <point x="245" y="654"/>
      <point x="188" y="654" type="curve" smooth="yes"/>
      <point x="131" y="654"/>
      <point x="98" y="600"/>
      <point x="98" y="529" type="curve" smooth="yes"/>
      <point x="98" y="459"/>
      <point x="131" y="405"/>
    </contour>
  </outline>
</glyph>
<glyph name="onequarter" format="2">
  <advance width="843"/>
  <unicode hex="00BC"/>
  <outline>
    <contour>
      <point x="124" y="0" type="line"/>
      <point x="610" y="707" type="line"/>
      <point x="689" y="707" type="line"/>
      <point x="203" y="0" type="line"/>
    </contour>
    <contour>
      <point x="121" y="331" type="line"/>
      <point x="121" y="631" type="line"/>
      <point x="118" y="631" type="line"/>
      <point x="25" y="569" type="line"/>
      <point x="25" y="644" type="line"/>
      <point x="121" y="707" type="line"/>
      <point x="194" y="707" type="line"/>
      <point x="194" y="331" type="line"/>
    </contour>
    <contour>
      <point x="499" y="67" type="line"/>
      <point x="499" y="125" type="line"/>
      <point x="679" y="376" type="line"/>
      <point x="771" y="376" type="line"/>
      <point x="771" y="126" type="line"/>
      <point x="822" y="126" type="line"/>
      <point x="822" y="67" type="line"/>
      <point x="771" y="67" type="line"/>
      <point x="771" y="0" type="line"/>
      <point x="700" y="0" type="line"/>
      <point x="700" y="67" type="line"/>
    </contour>
    <contour>
      <point x="574" y="126" type="line"/>
      <point x="702" y="126" type="line"/>
      <point x="702" y="296" type="line"/>
      <point x="699" y="296" type="line"/>
      <point x="574" y="128" type="line"/>
    </contour>
  </outline>
</glyph>
<glyph name="Aacute" format="2">
  <advance width="645"/>
  <unicode hex="00C1"/>
  <outline>
    <contour>
      <point x="109" y="0" type="line"/>
      <point x="18" y="0" type="line"/>
      <point x="276" y="707" type="line"/>
      <point x="369" y="707" type="line"/>
      <point x="628" y="0" type="line"/>
      <point x="535" y="0" type="line"/>
      <point x="465" y="199" type="line"/>
      <point x="181" y="199" type="line"/>
    </contour>
    <contour>
      <point x="285" y="779" type="line"/>
      <point x="369" y="939" type="line"/>
      <point x="466" y="939" type="line"/>
      <point x="357" y="779" type="line"/>
    </contour>
    <contour>
      <point x="207" y="276" type="line"/>
      <point x="438" y="276" type="line"/>
      <point x="325" y="593" type="line"/>
      <point x="319" y="593" type="line"/>
    </contour>
  </outline>
</glyph>
<glyph name="Atilde" format="2">
  <advance width="645"/>
  <unicode hex="00C3"/>
  <outline>
    <contour>
      <point x="109" y="0" type="line"/>
      <point x="18" y="0" type="line"/>
      <point x="276" y="707" type="line"/>
      <point x="369" y="707" type="line"/>
      <point x="628" y="0" type="line"/>
      <point x="535" y="0" type="line"/>
      <point x="465" y="199" type="line"/>
      <point x="181" y="199" type="line"/>
    </contour>
    <contour>
      <point x="152" y="780" type="line"/>
      <point x="152" y="851"/>
      <point x="199" y="901"/>
      <point x="258" y="901" type="curve" smooth="yes"/>
      <point x="312" y="901"/>
      <point x="335" y="857"/>
      <point x="384" y="857" type="curve" smooth="yes"/>
      <point x="410" y="857"/>
      <point x="431" y="880"/>
      <point x="431" y="909" type="curve"/>
      <point x="494" y="904" type="line"/>
      <point x="494" y="831"/>
      <point x="448" y="786"/>
      <point x="388" y="786" type="curve" smooth="yes"/>
      <point x="325" y="786"/>
      <point x="315" y="830"/>
      <point x="263" y="830" type="curve" smooth="yes"/>
      <point x="237" y="830"/>
      <point x="218" y="806"/>
      <point x="218" y="777" type="curve"/>
    </contour>
    <contour>
      <point x="207" y="276" type="line"/>
      <point x="438" y="276" type="line"/>
      <point x="325" y="593" type="line"/>
      <point x="319" y="593" type="line"/>
    </contour>
  </outline>
</glyph>
<glyph name="Adieresis" format="2">
  <advance width="645"/>
  <unicode hex="00C4"/>
  <outline>
    <contour>
      <point x="109" y="0" type="line"/>
      <point x="18" y="0" type="line"/>
      <point x="276" y="707" type="line"/>
      <point x="369" y="707" type="line"/>
      <point x="628" y="0" type="line"/>
      <point x="535" y="0" type="line"/>
      <point x="465" y="199" type="line"/>
      <point x="181" y="199" type="line"/>
    </contour>
    <contour>
      <point x="223" y="795" type="curve" smooth="yes"/>
      <point x="194" y="795"/>
      <point x="167" y="822"/>
      <point x="167" y="851" type="curve" smooth="yes"/>
      <point x="167" y="883"/>
      <point x="194" y="906"/>
      <point x="223" y="906" type="curve" smooth="yes"/>
      <point x="256" y="906"/>
      <point x="279" y="883"/>
      <point x="279" y="851" type="curve" smooth="yes"/>
      <point x="279" y="822"/>
      <point x="256" y="795"/>
    </contour>
    <contour>
      <point x="423" y="795" type="curve" smooth="yes"/>
      <point x="393" y="795"/>
      <point x="366" y="822"/>
      <point x="366" y="851" type="curve" smooth="yes"/>
      <point x="366" y="883"/>
      <point x="393" y="906"/>
      <point x="423" y="906" type="curve" smooth="yes"/>
      <point x="454" y="906"/>
      <point x="479" y="883"/>
      <point x="479" y="851" type="curve" smooth="yes"/>
      <point x="479" y="822"/>
      <point x="454" y="795"/>
    </contour>
    <contour>
      <point x="207" y="276" type="line"/>
      <point x="438" y="276" type="line"/>
      <point x="325" y="593" type="line"/>
      <point x="319" y="593" type="line"/>
    </contour>
  </outline>
</glyph>
<glyph name="AE" format="2">
  <advance width="949"/>
  <unicode hex="00C6"/>
  <outline>
    <contour>
      <point x="18" y="0" type="line"/>
      <point x="358" y="707" type="line"/>
      <point x="888" y="707" type="line"/>
      <point x="888" y="629" type="line"/>
      <point x="548" y="629" type="line"/>
      <point x="548" y="393" type="line"/>
      <point x="866" y="393" type="line"/>
      <point x="866" y="315" type="line"/>
      <point x="548" y="315" type="line"/>
      <point x="548" y="78" type="line"/>
      <point x="894" y="78" type="line"/>
      <point x="894" y="0" type="line"/>
      <point x="459" y="0" type="line"/>
      <point x="459" y="199" type="line"/>
      <point x="208" y="199" type="line"/>
      <point x="114" y="0" type="line"/>
    </contour>
    <contour>
      <point x="244" y="276" type="line"/>
      <point x="459" y="276" type="line"/>
      <point x="459" y="629" type="line"/>
      <point x="408" y="629" type="line"/>
    </contour>
  </outline>
</glyph>
<glyph name="Ccedilla" format="2">
  <advance width="693"/>
  <unicode hex="00C7"/>
  <outline>
    <contour>
      <point x="561" y="484" type="line"/>
      <point x="540" y="582"/>
      <point x="456" y="635"/>
      <point x="363" y="635" type="curve" smooth="yes"/>
      <point x="235" y="635"/>
      <point x="136" y="537"/>
      <point x="136" y="354" type="curve" smooth="yes"/>
      <point x="136" y="171"/>
      <point x="235" y="72"/>
      <point x="363" y="72" type="curve" smooth="yes"/>
      <point x="456" y="72"/>
      <point x="540" y="125"/>
      <point x="561" y="222" type="curve"/>
      <point x="648" y="222" type="line"/>
      <point x="625" y="87"/>
      <point x="523" y="2"/>
      <point x="393" y="-8" type="curve"/>
      <point x="389" y="-30" type="line"/>
      <point x="425" y="-36"/>
      <point x="461" y="-58"/>
      <point x="461" y="-112" type="curve" smooth="yes"/>
      <point x="461" y="-172"/>
      <point x="410" y="-214"/>
      <point x="314" y="-214" type="curve"/>
      <point x="312" y="-159" type="line"/>
      <point x="356" y="-159"/>
      <point x="387" y="-146"/>
      <point x="387" y="-115" type="curve" smooth="yes"/>
      <point x="387" y="-84"/>
      <point x="365" y="-75"/>
      <point x="312" y="-70" type="curve"/>
      <point x="325" y="-8" type="line"/>
      <point x="163" y="11"/>
      <point x="51" y="146"/>
      <point x="51" y="354" type="curve" smooth="yes"/>
      <point x="51" y="578"/>
      <point x="181" y="717"/>
      <point x="363" y="717" type="curve" smooth="yes"/>
      <point x="506" y="717"/>
      <point x="622" y="630"/>
      <point x="648" y="484" type="curve"/>
    </contour>
  </outline>
</glyph>
<glyph name="Egrave" format="2">
  <advance width="567"/>
  <unicode hex="00C8"/>
  <outline>
    <contour>
      <point x="78" y="0" type="line"/>
      <point x="78" y="707" type="line"/>
      <point x="507" y="707" type="line"/>
      <point x="507" y="629" type="line"/>
      <point x="166" y="629" type="line"/>
      <point x="166" y="393" type="line"/>
      <point x="484" y="393" type="line"/>
      <point x="484" y="315" type="line"/>
      <point x="166" y="315" type="line"/>
      <point x="166" y="78" type="line"/>
      <point x="512" y="78" type="line"/>
      <point x="512" y="0" type="line"/>
    </contour>
    <contour>
      <point x="256" y="779" type="line"/>
      <point x="148" y="939" type="line"/>
      <point x="246" y="939" type="line"/>
      <point x="329" y="779" type="line"/>
    </contour>
  </outline>
</glyph>
<glyph name="Eacute" format="2">
  <advance width="567"/>
  <unicode hex="00C9"/>
  <outline>
    <contour>
      <point x="78" y="0" type="line"/>
      <point x="78" y="707" type="line"/>
      <point x="507" y="707" type="line"/>
      <point x="507" y="629" type="line"/>
      <point x="166" y="629" type="line"/>
      <point x="166" y="393" type="line"/>
      <point x="484" y="393" type="line"/>
      <point x="484" y="315" type="line"/>
      <point x="166" y="315" type="line"/>
      <point x="166" y="78" type="line"/>
      <point x="512" y="78" type="line"/>
      <point x="512" y="0" type="line"/>
    </contour>
    <contour>
      <point x="254" y="779" type="line"/>
      <point x="338" y="939" type="line"/>
      <point x="435" y="939" type="line"/>
      <point x="326" y="779" type="line"/>
    </contour>
  </outline>
</glyph>
<glyph name="Ecircumflex" format="2">
  <advance width="567"/>
  <unicode hex="00CA"/>
  <outline>
    <contour>
      <point x="78" y="0" type="line"/>
      <point x="78" y="707" type="line"/>
      <point x="507" y="707" type="line"/>
      <point x="507" y="629" type="line"/>
      <point x="166" y="629" type="line"/>
      <point x="166" y="393" type="line"/>
      <point x="484" y="393" type="line"/>
      <point x="484" y="315" type="line"/>
      <point x="166" y="315" type="line"/>
      <point x="166" y="78" type="line"/>
      <point x="512" y="78" type="line"/>
      <point x="512" y="0" type="line"/>
    </contour>
    <contour>
      <point x="362" y="771" type="line"/>
      <point x="290" y="866" type="line"/>
      <point x="219" y="771" type="line"/>
      <point x="139" y="771" type="line"/>
      <point x="139" y="776" type="line"/>
      <point x="252" y="920" type="line"/>
      <point x="328" y="920" type="line"/>
      <point x="441" y="776" type="line"/>
      <point x="441" y="771" type="line"/>
    </contour>
  </outline>
</glyph>
<glyph name="Edieresis" format="2">
  <advance width="567"/>
  <unicode hex="00CB"/>
  <outline>
    <contour>
      <point x="78" y="0" type="line"/>
      <point x="78" y="707" type="line"/>
      <point x="507" y="707" type="line"/>
      <point x="507" y="629" type="line"/>
      <point x="166" y="629" type="line"/>
      <point x="166" y="393" type="line"/>
      <point x="484" y="393" type="line"/>
      <point x="484" y="315" type="line"/>
      <point x="166" y="315" type="line"/>
      <point x="166" y="78" type="line"/>
      <point x="512" y="78" type="line"/>
      <point x="512" y="0" type="line"/>
    </contour>
    <contour>
      <point x="191" y="795" type="curve" smooth="yes"/>
      <point x="162" y="795"/>
      <point x="136" y="822"/>
      <point x="136" y="851" type="curve" smooth="yes"/>
      <point x="136" y="883"/>
      <point x="162" y="906"/>
      <point x="191" y="906" type="curve" smooth="yes"/>
      <point x="224" y="906"/>
      <point x="248" y="883"/>
      <point x="248" y="851" type="curve" smooth="yes"/>
      <point x="248" y="822"/>
      <point x="224" y="795"/>
    </contour>
    <contour>
      <point x="392" y="795" type="curve" smooth="yes"/>
      <point x="362" y="795"/>
      <point x="335" y="822"/>
      <point x="335" y="851" type="curve" smooth="yes"/>
      <point x="335" y="883"/>
      <point x="362" y="906"/>
      <point x="392" y="906" type="curve" smooth="yes"/>
      <point x="423" y="906"/>
      <point x="447" y="883"/>
      <point x="447" y="851" type="curve" smooth="yes"/>
      <point x="447" y="822"/>
      <point x="423" y="795"/>
    </contour>
  </outline>
</glyph>
<glyph name="Igrave" format="2">
  <advance width="244"/>
  <unicode hex="00CC"/>
  <outline>
    <contour>
      <point x="166" y="707" type="line"/>
      <point x="166" y="0" type="line"/>
      <point x="78" y="0" type="line"/>
      <point x="78" y="707" type="line"/>
    </contour>
    <contour>
      <point x="87" y="779" type="line"/>
      <point x="-21" y="939" type="line"/>
      <point x="77" y="939" type="line"/>
      <point x="160" y="779" type="line"/>
    </contour>
  </outline>
</glyph>
<glyph name="Iacute" format="2">
  <advance width="244"/>
  <unicode hex="00CD"/>
  <outline>
    <contour>
      <point x="166" y="707" type="line"/>
      <point x="166" y="0" type="line"/>
      <point x="78" y="0" type="line"/>
      <point x="78" y="707" type="line"/>
    </contour>
    <contour>
      <point x="85" y="779" type="line"/>
      <point x="169" y="939" type="line"/>
      <point x="266" y="939" type="line"/>
      <point x="157" y="779" type="line"/>
    </contour>
  </outline>
</glyph>
<glyph name="Icircumflex" format="2">
  <advance width="244"/>
  <unicode hex="00CE"/>
  <outline>
    <contour>
      <point x="166" y="707" type="line"/>
      <point x="166" y="0" type="line"/>
      <point x="78" y="0" type="line"/>
      <point x="78" y="707" type="line"/>
    </contour>
    <contour>
      <point x="193" y="771" type="line"/>
      <point x="121" y="866" type="line"/>
      <point x="50" y="771" type="line"/>
      <point x="-30" y="771" type="line"/>
      <point x="-30" y="776" type="line"/>
      <point x="83" y="920" type="line"/>
      <point x="159" y="920" type="line"/>
      <point x="272" y="776" type="line"/>
      <point x="272" y="771" type="line"/>
    </contour>
  </outline>
</glyph>
<glyph name="Idieresis" format="2">
  <advance width="244"/>
  <unicode hex="00CF"/>
  <outline>
    <contour>
      <point x="166" y="707" type="line"/>
      <point x="166" y="0" type="line"/>
      <point x="78" y="0" type="line"/>
      <point x="78" y="707" type="line"/>
    </contour>
    <contour>
      <point x="22" y="795" type="curve" smooth="yes"/>
      <point x="-7" y="795"/>
      <point x="-33" y="822"/>
      <point x="-33" y="851" type="curve" smooth="yes"/>
      <point x="-33" y="883"/>
      <point x="-7" y="906"/>
      <point x="22" y="906" type="curve" smooth="yes"/>
      <point x="55" y="906"/>
      <point x="79" y="883"/>
      <point x="79" y="851" type="curve" smooth="yes"/>
      <point x="79" y="822"/>
      <point x="55" y="795"/>
    </contour>
    <contour>
      <point x="223" y="795" type="curve" smooth="yes"/>
      <point x="193" y="795"/>
      <point x="166" y="822"/>
      <point x="166" y="851" type="curve" smooth="yes"/>
      <point x="166" y="883"/>
      <point x="193" y="906"/>
      <point x="223" y="906" type="curve" smooth="yes"/>
      <point x="254" y="906"/>
      <point x="278" y="883"/>
      <point x="278" y="851" type="curve" smooth="yes"/>
      <point x="278" y="822"/>
      <point x="254" y="795"/>
    </contour>
  </outline>
</glyph>
<glyph name="Ntilde" format="2">
  <advance width="717"/>
  <unicode hex="00D1"/>
  <outline>
    <contour>
      <point x="640" y="707" type="line"/>
      <point x="640" y="0" type="line"/>
      <point x="556" y="0" type="line"/>
      <point x="173" y="551" type="line"/>
      <point x="166" y="551" type="line"/>
      <point x="166" y="0" type="line"/>
      <point x="78" y="0" type="line"/>
      <point x="78" y="707" type="line"/>
      <point x="163" y="707" type="line"/>
      <point x="546" y="155" type="line"/>
      <point x="553" y="155" type="line"/>
      <point x="553" y="707" type="line"/>
    </contour>
    <contour>
      <point x="188" y="773" type="line"/>
      <point x="188" y="844"/>
      <point x="235" y="895"/>
      <point x="294" y="895" type="curve" smooth="yes"/>
      <point x="348" y="895"/>
      <point x="371" y="851"/>
      <point x="420" y="851" type="curve" smooth="yes"/>
      <point x="446" y="851"/>
      <point x="467" y="873"/>
      <point x="467" y="902" type="curve"/>
      <point x="530" y="897" type="line"/>
      <point x="530" y="824"/>
      <point x="484" y="779"/>
      <point x="424" y="779" type="curve" smooth="yes"/>
      <point x="361" y="779"/>
      <point x="351" y="823"/>
      <point x="299" y="823" type="curve" smooth="yes"/>
      <point x="273" y="823"/>
      <point x="254" y="800"/>
      <point x="254" y="771" type="curve"/>
    </contour>
  </outline>
</glyph>
<glyph name="Ograve" format="2">
  <advance width="726"/>
  <unicode hex="00D2"/>
  <outline>
    <contour>
      <point x="676" y="354" type="curve" smooth="yes"/>
      <point x="676" y="130"/>
      <point x="544" y="-10"/>
      <point x="363" y="-10" type="curve" smooth="yes"/>
      <point x="181" y="-10"/>
      <point x="51" y="130"/>
      <point x="51" y="354" type="curve" smooth="yes"/>
      <point x="51" y="578"/>
      <point x="181" y="717"/>
      <point x="363" y="717" type="curve" smooth="yes"/>
      <point x="544" y="717"/>
      <point x="676" y="578"/>
    </contour>
    <contour>
      <point x="591" y="354" type="curve" smooth="yes"/>
      <point x="591" y="537"/>
      <point x="491" y="635"/>
      <point x="363" y="635" type="curve" smooth="yes"/>
      <point x="235" y="635"/>
      <point x="136" y="537"/>
      <point x="136" y="354" type="curve" smooth="yes"/>
      <point x="136" y="171"/>
      <point x="235" y="72"/>
      <point x="363" y="72" type="curve" smooth="yes"/>
      <point x="491" y="72"/>
      <point x="591" y="171"/>
    </contour>
    <contour>
      <point x="328" y="779" type="line"/>
      <point x="221" y="939" type="line"/>
      <point x="318" y="939" type="line"/>
      <point x="401" y="779" type="line"/>
    </contour>
  </outline>
</glyph>
<glyph name="Ocircumflex" format="2">
  <advance width="726"/>
  <unicode hex="00D4"/>
  <outline>
    <contour>
      <point x="676" y="354" type="curve" smooth="yes"/>
      <point x="676" y="130"/>
      <point x="544" y="-10"/>
      <point x="363" y="-10" type="curve" smooth="yes"/>
      <point x="181" y="-10"/>
      <point x="51" y="130"/>
      <point x="51" y="354" type="curve" smooth="yes"/>
      <point x="51" y="578"/>
      <point x="181" y="717"/>
      <point x="363" y="717" type="curve" smooth="yes"/>
      <point x="544" y="717"/>
      <point x="676" y="578"/>
    </contour>
    <contour>
      <point x="591" y="354" type="curve" smooth="yes"/>
      <point x="591" y="537"/>
      <point x="491" y="635"/>
      <point x="363" y="635" type="curve" smooth="yes"/>
      <point x="235" y="635"/>
      <point x="136" y="537"/>
      <point x="136" y="354" type="curve" smooth="yes"/>
      <point x="136" y="171"/>
      <point x="235" y="72"/>
      <point x="363" y="72" type="curve" smooth="yes"/>
      <point x="491" y="72"/>
      <point x="591" y="171"/>
    </contour>
    <contour>
      <point x="435" y="771" type="line"/>
      <point x="362" y="866" type="line"/>
      <point x="291" y="771" type="line"/>
      <point x="211" y="771" type="line"/>
      <point x="211" y="776" type="line"/>
      <point x="324" y="920" type="line"/>
      <point x="400" y="920" type="line"/>
      <point x="514" y="776" type="line"/>
      <point x="514" y="771" type="line"/>
    </contour>
  </outline>
</glyph>
<glyph name="Otilde" format="2">
  <advance width="726"/>
  <unicode hex="00D5"/>
  <outline>
    <contour>
      <point x="676" y="354" type="curve" smooth="yes"/>
      <point x="676" y="130"/>
      <point x="544" y="-10"/>
      <point x="363" y="-10" type="curve" smooth="yes"/>
      <point x="181" y="-10"/>
      <point x="51" y="130"/>
      <point x="51" y="354" type="curve" smooth="yes"/>
      <point x="51" y="578"/>
      <point x="181" y="717"/>
      <point x="363" y="717" type="curve" smooth="yes"/>
      <point x="544" y="717"/>
      <point x="676" y="578"/>
    </contour>
    <contour>
      <point x="591" y="354" type="curve" smooth="yes"/>
      <point x="591" y="537"/>
      <point x="491" y="635"/>
      <point x="363" y="635" type="curve" smooth="yes"/>
      <point x="235" y="635"/>
      <point x="136" y="537"/>
      <point x="136" y="354" type="curve" smooth="yes"/>
      <point x="136" y="171"/>
      <point x="235" y="72"/>
      <point x="363" y="72" type="curve" smooth="yes"/>
      <point x="491" y="72"/>
      <point x="591" y="171"/>
    </contour>
    <contour>
      <point x="193" y="780" type="line"/>
      <point x="193" y="851"/>
      <point x="240" y="901"/>
      <point x="299" y="901" type="curve" smooth="yes"/>
      <point x="353" y="901"/>
      <point x="376" y="857"/>
      <point x="425" y="857" type="curve" smooth="yes"/>
      <point x="451" y="857"/>
      <point x="472" y="880"/>
      <point x="472" y="909" type="curve"/>
      <point x="535" y="904" type="line"/>
      <point x="535" y="831"/>
      <point x="489" y="786"/>
      <point x="429" y="786" type="curve" smooth="yes"/>
      <point x="366" y="786"/>
      <point x="356" y="830"/>
      <point x="304" y="830" type="curve" smooth="yes"/>
      <point x="278" y="830"/>
      <point x="259" y="806"/>
      <point x="259" y="777" type="curve"/>
    </contour>
  </outline>
</glyph>
<glyph name="Odieresis" format="2">
  <advance width="726"/>
  <unicode hex="00D6"/>
  <outline>
    <contour>
      <point x="676" y="354" type="curve" smooth="yes"/>
      <point x="676" y="130"/>
      <point x="544" y="-10"/>
      <point x="363" y="-10" type="curve" smooth="yes"/>
      <point x="181" y="-10"/>
      <point x="51" y="130"/>
      <point x="51" y="354" type="curve" smooth="yes"/>
      <point x="51" y="578"/>
      <point x="181" y="717"/>
      <point x="363" y="717" type="curve" smooth="yes"/>
      <point x="544" y="717"/>
      <point x="676" y="578"/>
    </contour>
    <contour>
      <point x="591" y="354" type="curve" smooth="yes"/>
      <point x="591" y="537"/>
      <point x="491" y="635"/>
      <point x="363" y="635" type="curve" smooth="yes"/>
      <point x="235" y="635"/>
      <point x="136" y="537"/>
      <point x="136" y="354" type="curve" smooth="yes"/>
      <point x="136" y="171"/>
      <point x="235" y="72"/>
      <point x="363" y="72" type="curve" smooth="yes"/>
      <point x="491" y="72"/>
      <point x="591" y="171"/>
    </contour>
    <contour>
      <point x="264" y="795" type="curve" smooth="yes"/>
      <point x="235" y="795"/>
      <point x="208" y="822"/>
      <point x="208" y="851" type="curve" smooth="yes"/>
      <point x="208" y="883"/>
      <point x="235" y="906"/>
      <point x="264" y="906" type="curve" smooth="yes"/>
      <point x="297" y="906"/>
      <point x="320" y="883"/>
      <point x="320" y="851" type="curve" smooth="yes"/>
      <point x="320" y="822"/>
      <point x="297" y="795"/>
    </contour>
    <contour>
      <point x="464" y="795" type="curve" smooth="yes"/>
      <point x="434" y="795"/>
      <point x="407" y="822"/>
      <point x="407" y="851" type="curve" smooth="yes"/>
      <point x="407" y="883"/>
      <point x="434" y="906"/>
      <point x="464" y="906" type="curve" smooth="yes"/>
      <point x="495" y="906"/>
      <point x="520" y="883"/>
      <point x="520" y="851" type="curve" smooth="yes"/>
      <point x="520" y="822"/>
      <point x="495" y="795"/>
    </contour>
  </outline>
</glyph>
<glyph name="multiply" format="2">
  <advance width="626"/>
  <unicode hex="00D7"/>
  <outline>
    <contour>
      <point x="146" y="55" type="line"/>
      <point x="92" y="108" type="line"/>
      <point x="261" y="277" type="line"/>
      <point x="92" y="444" type="line"/>
      <point x="146" y="499" type="line"/>
      <point x="314" y="331" type="line"/>
      <point x="482" y="499" type="line"/>
      <point x="536" y="444" type="line"/>
      <point x="368" y="277" type="line"/>
      <point x="536" y="108" type="line"/>
      <point x="482" y="55" type="line"/>
      <point x="314" y="223" type="line"/>
    </contour>
  </outline>
</glyph>
<glyph name="Oslash" format="2">
  <advance width="726"/>
  <unicode hex="00D8"/>
  <outline>
    <contour>
      <point x="143" y="-29" type="line"/>
      <point x="89" y="7" type="line"/>
      <point x="142" y="85" type="line"/>
      <point x="85" y="148"/>
      <point x="51" y="240"/>
      <point x="51" y="354" type="curve" smooth="yes"/>
      <point x="51" y="578"/>
      <point x="181" y="717"/>
      <point x="363" y="717" type="curve" smooth="yes"/>
      <point x="427" y="717"/>
      <point x="486" y="699"/>
      <point x="535" y="666" type="curve"/>
      <point x="581" y="734" type="line"/>
      <point x="635" y="699" type="line"/>
      <point x="584" y="623" type="line"/>
      <point x="641" y="560"/>
      <point x="676" y="468"/>
      <point x="676" y="354" type="curve" smooth="yes"/>
      <point x="676" y="130"/>
      <point x="544" y="-10"/>
      <point x="363" y="-10" type="curve" smooth="yes"/>
      <point x="298" y="-10"/>
      <point x="239" y="8"/>
      <point x="190" y="42" type="curve"/>
    </contour>
    <contour>
      <point x="591" y="354" type="curve" smooth="yes"/>
      <point x="591" y="438"/>
      <point x="570" y="504"/>
      <point x="535" y="551" type="curve"/>
      <point x="238" y="111" type="line"/>
      <point x="273" y="85"/>
      <point x="316" y="72"/>
      <point x="363" y="72" type="curve" smooth="yes"/>
      <point x="491" y="72"/>
      <point x="591" y="171"/>
    </contour>
    <contour>
      <point x="136" y="354" type="curve" smooth="yes"/>
      <point x="136" y="271"/>
      <point x="156" y="204"/>
      <point x="191" y="158" type="curve"/>
      <point x="488" y="597" type="line"/>
      <point x="452" y="622"/>
      <point x="409" y="635"/>
      <point x="363" y="635" type="curve" smooth="yes"/>
      <point x="235" y="635"/>
      <point x="136" y="537"/>
    </contour>
  </outline>
</glyph>
<glyph name="Ugrave" format="2">
  <advance width="707"/>
  <unicode hex="00D9"/>
  <outline>
    <contour>
      <point x="541" y="707" type="line"/>
      <point x="629" y="707" type="line"/>
      <point x="629" y="239" type="line" smooth="yes"/>
      <point x="629" y="93"/>
      <point x="521" y="-13"/>
      <point x="354" y="-13" type="curve" smooth="yes"/>
      <point x="187" y="-13"/>
      <point x="78" y="93"/>
      <point x="78" y="239" type="curve" smooth="yes"/>
      <point x="78" y="707" type="line"/>
      <point x="166" y="707" type="line"/>
      <point x="166" y="246" type="line" smooth="yes"/>
      <point x="166" y="143"/>
      <point x="238" y="69"/>
      <point x="354" y="69" type="curve" smooth="yes"/>
      <point x="471" y="69"/>
      <point x="541" y="143"/>
      <point x="541" y="246" type="curve" smooth="yes"/>
    </contour>
    <contour>
      <point x="318" y="779" type="line"/>
      <point x="211" y="939" type="line"/>
      <point x="309" y="939" type="line"/>
      <point x="392" y="779" type="line"/>
    </contour>
  </outline>
</glyph>
<glyph name="Uacute" format="2">
  <advance width="707"/>
  <unicode hex="00DA"/>
  <outline>
    <contour>
      <point x="541" y="707" type="line"/>
      <point x="629" y="707" type="line"/>
      <point x="629" y="239" type="line" smooth="yes"/>
      <point x="629" y="93"/>
      <point x="521" y="-13"/>
      <point x="354" y="-13" type="curve" smooth="yes"/>
      <point x="187" y="-13"/>
      <point x="78" y="93"/>
      <point x="78" y="239" type="curve" smooth="yes"/>
      <point x="78" y="707" type="line"/>
      <point x="166" y="707" type="line"/>
      <point x="166" y="246" type="line" smooth="yes"/>
      <point x="166" y="143"/>
      <point x="238" y="69"/>
      <point x="354" y="69" type="curve" smooth="yes"/>
      <point x="471" y="69"/>
      <point x="541" y="143"/>
      <point x="541" y="246" type="curve" smooth="yes"/>
    </contour>
    <contour>
      <point x="316" y="779" type="line"/>
      <point x="400" y="939" type="line"/>
      <point x="497" y="939" type="line"/>
      <point x="389" y="779" type="line"/>
    </contour>
  </outline>
</glyph>
<glyph name="Ucircumflex" format="2">
  <advance width="707"/>
  <unicode hex="00DB"/>
  <outline>
    <contour>
      <point x="541" y="707" type="line"/>
      <point x="629" y="707" type="line"/>
      <point x="629" y="239" type="line" smooth="yes"/>
      <point x="629" y="93"/>
      <point x="521" y="-13"/>
      <point x="354" y="-13" type="curve" smooth="yes"/>
      <point x="187" y="-13"/>
      <point x="78" y="93"/>
      <point x="78" y="239" type="curve" smooth="yes"/>
      <point x="78" y="707" type="line"/>
      <point x="166" y="707" type="line"/>
      <point x="166" y="246" type="line" smooth="yes"/>
      <point x="166" y="143"/>
      <point x="238" y="69"/>
      <point x="354" y="69" type="curve" smooth="yes"/>
      <point x="471" y="69"/>
      <point x="541" y="143"/>
      <point x="541" y="246" type="curve" smooth="yes"/>
    </contour>
    <contour>
      <point x="425" y="771" type="line"/>
      <point x="353" y="866" type="line"/>
      <point x="281" y="771" type="line"/>
      <point x="201" y="771" type="line"/>
      <point x="201" y="776" type="line"/>
      <point x="314" y="920" type="line"/>
      <point x="391" y="920" type="line"/>
      <point x="504" y="776" type="line"/>
      <point x="504" y="771" type="line"/>
    </contour>
  </outline>
</glyph>
<glyph name="Udieresis" format="2">
  <advance width="707"/>
  <unicode hex="00DC"/>
  <outline>
    <contour>
      <point x="541" y="707" type="line"/>
      <point x="629" y="707" type="line"/>
      <point x="629" y="239" type="line" smooth="yes"/>
      <point x="629" y="93"/>
      <point x="521" y="-13"/>
      <point x="354" y="-13" type="curve" smooth="yes"/>
      <point x="187" y="-13"/>
      <point x="78" y="93"/>
      <point x="78" y="239" type="curve" smooth="yes"/>
      <point x="78" y="707" type="line"/>
      <point x="166" y="707" type="line"/>
      <point x="166" y="246" type="line" smooth="yes"/>
      <point x="166" y="143"/>
      <point x="238" y="69"/>
      <point x="354" y="69" type="curve" smooth="yes"/>
      <point x="471" y="69"/>
      <point x="541" y="143"/>
      <point x="541" y="246" type="curve" smooth="yes"/>
    </contour>
    <contour>
      <point x="254" y="795" type="curve" smooth="yes"/>
      <point x="225" y="795"/>
      <point x="198" y="822"/>
      <point x="198" y="851" type="curve" smooth="yes"/>
      <point x="198" y="883"/>
      <point x="225" y="906"/>
      <point x="254" y="906" type="curve" smooth="yes"/>
      <point x="287" y="906"/>
      <point x="311" y="883"/>
      <point x="311" y="851" type="curve" smooth="yes"/>
      <point x="311" y="822"/>
      <point x="287" y="795"/>
    </contour>
    <contour>
      <point x="454" y="795" type="curve" smooth="yes"/>
      <point x="424" y="795"/>
      <point x="397" y="822"/>
      <point x="397" y="851" type="curve" smooth="yes"/>
      <point x="397" y="883"/>
      <point x="424" y="906"/>
      <point x="454" y="906" type="curve" smooth="yes"/>
      <point x="485" y="906"/>
      <point x="510" y="883"/>
      <point x="510" y="851" type="curve" smooth="yes"/>
      <point x="510" y="822"/>
      <point x="485" y="795"/>
    </contour>
  </outline>
</glyph>
<glyph name="Yacute" format="2">
  <advance width="633"/>
  <unicode hex="00DD"/>
  <outline>
    <contour>
      <point x="18" y="707" type="line"/>
      <point x="118" y="707" type="line"/>
      <point x="312" y="379" type="line"/>
      <point x="321" y="379" type="line"/>
      <point x="516" y="707" type="line"/>
      <point x="617" y="707" type="line"/>
      <point x="361" y="290" type="line"/>
      <point x="361" y="0" type="line"/>
      <point x="272" y="0" type="line"/>
      <point x="272" y="290" type="line"/>
    </contour>
    <contour>
      <point x="280" y="779" type="line"/>
      <point x="364" y="939" type="line"/>
      <point x="461" y="939" type="line"/>
      <point x="353" y="779" type="line"/>
    </contour>
  </outline>
</glyph>
<glyph name="Thorn" format="2">
  <advance width="600"/>
  <unicode hex="00DE"/>
  <outline>
    <contour>
      <point x="72" y="707" type="line"/>
      <point x="161" y="707" type="line"/>
      <point x="161" y="562" type="line"/>
      <point x="296" y="562" type="line" smooth="yes"/>
      <point x="447" y="562"/>
      <point x="531" y="470"/>
      <point x="531" y="357" type="curve" smooth="yes"/>
      <point x="531" y="245"/>
      <point x="447" y="154"/>
      <point x="296" y="154" type="curve" smooth="yes"/>
      <point x="161" y="154" type="line"/>
      <point x="161" y="0" type="line"/>
      <point x="72" y="0" type="line"/>
    </contour>
    <contour>
      <point x="161" y="232" type="line"/>
      <point x="296" y="232" type="line" smooth="yes"/>
      <point x="394" y="232"/>
      <point x="447" y="277"/>
      <point x="447" y="356" type="curve" smooth="yes"/>
      <point x="447" y="435"/>
      <point x="394" y="484"/>
      <point x="296" y="484" type="curve" smooth="yes"/>
      <point x="161" y="484" type="line"/>
    </contour>
  </outline>
</glyph>
<glyph name="germandbls" format="2">
  <advance width="581"/>
  <unicode hex="00DF"/>
  <outline>
    <contour>
      <point x="78" y="526" type="line" smooth="yes"/>
      <point x="78" y="644"/>
      <point x="162" y="717"/>
      <point x="284" y="717" type="curve" smooth="yes"/>
      <point x="402" y="717"/>
      <point x="492" y="647"/>
      <point x="492" y="534" type="curve" smooth="yes"/>
      <point x="492" y="454"/>
      <point x="446" y="397"/>
      <point x="380" y="374" type="curve"/>
      <point x="380" y="367" type="line"/>
      <point x="470" y="358"/>
      <point x="533" y="294"/>
      <point x="533" y="194" type="curve" smooth="yes"/>
      <point x="533" y="82"/>
      <point x="451" y="0"/>
      <point x="326" y="0" type="curve" smooth="yes"/>
      <point x="249" y="0" type="line"/>
      <point x="249" y="78" type="line"/>
      <point x="326" y="78" type="line" smooth="yes"/>
      <point x="401" y="78"/>
      <point x="449" y="126"/>
      <point x="449" y="195" type="curve" smooth="yes"/>
      <point x="449" y="267"/>
      <point x="396" y="319"/>
      <point x="312" y="319" type="curve" smooth="yes"/>
      <point x="251" y="319" type="line"/>
      <point x="251" y="398" type="line"/>
      <point x="295" y="398" type="line" smooth="yes"/>
      <point x="364" y="398"/>
      <point x="407" y="458"/>
      <point x="407" y="521" type="curve" smooth="yes"/>
      <point x="407" y="586"/>
      <point x="360" y="639"/>
      <point x="285" y="639" type="curve" smooth="yes"/>
      <point x="214" y="639"/>
      <point x="162" y="592"/>
      <point x="162" y="524" type="curve" smooth="yes"/>
      <point x="162" y="0" type="line"/>
      <point x="78" y="0" type="line"/>
    </contour>
  </outline>
</glyph>
<glyph name="aacute" format="2">
  <advance width="535"/>
  <unicode hex="00E1"/>
  <outline>
    <contour>
      <point x="240" y="603" type="line"/>
      <point x="324" y="763" type="line"/>
      <point x="421" y="763" type="line"/>
      <point x="312" y="603" type="line"/>
    </contour>
    <contour>
      <point x="42" y="150" type="curve" smooth="yes"/>
      <point x="42" y="272"/>
      <point x="149" y="300"/>
      <point x="241" y="307" type="curve" smooth="yes"/>
      <point x="275" y="309"/>
      <point x="361" y="313"/>
      <point x="385" y="314" type="curve"/>
      <point x="385" y="357" type="line" smooth="yes"/>
      <point x="385" y="424"/>
      <point x="345" y="464"/>
      <point x="265" y="464" type="curve" smooth="yes"/>
      <point x="198" y="464"/>
      <point x="158" y="433"/>
      <point x="146" y="393" type="curve"/>
      <point x="58" y="393" type="line"/>
      <point x="69" y="478"/>
      <point x="152" y="537"/>
      <point x="269" y="537" type="curve" smooth="yes"/>
      <point x="338" y="537"/>
      <point x="468" y="517"/>
      <point x="468" y="350" type="curve" smooth="yes"/>
      <point x="468" y="0" type="line"/>
      <point x="385" y="0" type="line"/>
      <point x="385" y="72" type="line"/>
      <point x="381" y="72" type="line"/>
      <point x="363" y="36"/>
      <point x="315" y="-13"/>
      <point x="223" y="-13" type="curve" smooth="yes"/>
      <point x="122" y="-13"/>
      <point x="42" y="46"/>
    </contour>
    <contour>
      <point x="126" y="146" type="curve" smooth="yes"/>
      <point x="126" y="90"/>
      <point x="173" y="62"/>
      <point x="237" y="62" type="curve" smooth="yes"/>
      <point x="332" y="62"/>
      <point x="385" y="126"/>
      <point x="385" y="192" type="curve" smooth="yes"/>
      <point x="385" y="246" type="line"/>
      <point x="251" y="236" type="line" smooth="yes"/>
      <point x="175" y="231"/>
      <point x="126" y="204"/>
    </contour>
  </outline>
</glyph>
<glyph name="atilde" format="2">
  <advance width="535"/>
  <unicode hex="00E3"/>
  <outline>
    <contour>
      <point x="106" y="597" type="line"/>
      <point x="106" y="668"/>
      <point x="153" y="718"/>
      <point x="212" y="718" type="curve" smooth="yes"/>
      <point x="266" y="718"/>
      <point x="289" y="674"/>
      <point x="338" y="674" type="curve" smooth="yes"/>
      <point x="364" y="674"/>
      <point x="385" y="697"/>
      <point x="385" y="726" type="curve"/>
      <point x="448" y="721" type="line"/>
      <point x="448" y="648"/>
      <point x="402" y="603"/>
      <point x="342" y="603" type="curve" smooth="yes"/>
      <point x="279" y="603"/>
      <point x="269" y="646"/>
      <point x="217" y="646" type="curve" smooth="yes"/>
      <point x="191" y="646"/>
      <point x="172" y="623"/>
      <point x="172" y="594" type="curve"/>
    </contour>
    <contour>
      <point x="42" y="150" type="curve" smooth="yes"/>
      <point x="42" y="272"/>
      <point x="149" y="300"/>
      <point x="241" y="307" type="curve" smooth="yes"/>
      <point x="275" y="309"/>
      <point x="361" y="313"/>
      <point x="385" y="314" type="curve"/>
      <point x="385" y="357" type="line" smooth="yes"/>
      <point x="385" y="424"/>
      <point x="345" y="464"/>
      <point x="265" y="464" type="curve" smooth="yes"/>
      <point x="198" y="464"/>
      <point x="158" y="433"/>
      <point x="146" y="393" type="curve"/>
      <point x="58" y="393" type="line"/>
      <point x="69" y="478"/>
      <point x="152" y="537"/>
      <point x="269" y="537" type="curve" smooth="yes"/>
      <point x="338" y="537"/>
      <point x="468" y="517"/>
      <point x="468" y="350" type="curve" smooth="yes"/>
      <point x="468" y="0" type="line"/>
      <point x="385" y="0" type="line"/>
      <point x="385" y="72" type="line"/>
      <point x="381" y="72" type="line"/>
      <point x="363" y="36"/>
      <point x="315" y="-13"/>
      <point x="223" y="-13" type="curve" smooth="yes"/>
      <point x="122" y="-13"/>
      <point x="42" y="46"/>
    </contour>
    <contour>
      <point x="126" y="146" type="curve" smooth="yes"/>
      <point x="126" y="90"/>
      <point x="173" y="62"/>
      <point x="237" y="62" type="curve" smooth="yes"/>
      <point x="332" y="62"/>
      <point x="385" y="126"/>
      <point x="385" y="192" type="curve" smooth="yes"/>
      <point x="385" y="246" type="line"/>
      <point x="251" y="236" type="line" smooth="yes"/>
      <point x="175" y="231"/>
      <point x="126" y="204"/>
    </contour>
  </outline>
</glyph>
<glyph name="aring" format="2">
  <advance width="535"/>
  <unicode hex="00E5"/>
  <outline>
    <contour>
      <point x="277" y="590" type="curve" smooth="yes"/>
      <point x="207" y="590"/>
      <point x="152" y="641"/>
      <point x="152" y="707" type="curve" smooth="yes"/>
      <point x="152" y="772"/>
      <point x="207" y="828"/>
      <point x="277" y="828" type="curve" smooth="yes"/>
      <point x="347" y="828"/>
      <point x="401" y="772"/>
      <point x="401" y="707" type="curve" smooth="yes"/>
      <point x="401" y="641"/>
      <point x="347" y="590"/>
    </contour>
    <contour>
      <point x="277" y="643" type="curve" smooth="yes"/>
      <point x="316" y="643"/>
      <point x="343" y="674"/>
      <point x="343" y="707" type="curve" smooth="yes"/>
      <point x="343" y="741"/>
      <point x="316" y="774"/>
      <point x="277" y="774" type="curve" smooth="yes"/>
      <point x="239" y="774"/>
      <point x="212" y="741"/>
      <point x="212" y="707" type="curve" smooth="yes"/>
      <point x="212" y="674"/>
      <point x="239" y="643"/>
    </contour>
    <contour>
      <point x="42" y="150" type="curve" smooth="yes"/>
      <point x="42" y="272"/>
      <point x="149" y="300"/>
      <point x="241" y="307" type="curve" smooth="yes"/>
      <point x="275" y="309"/>
      <point x="361" y="313"/>
      <point x="385" y="314" type="curve"/>
      <point x="385" y="357" type="line" smooth="yes"/>
      <point x="385" y="424"/>
      <point x="345" y="464"/>
      <point x="265" y="464" type="curve" smooth="yes"/>
      <point x="198" y="464"/>
      <point x="158" y="433"/>
      <point x="146" y="393" type="curve"/>
      <point x="58" y="393" type="line"/>
      <point x="69" y="478"/>
      <point x="152" y="537"/>
      <point x="269" y="537" type="curve" smooth="yes"/>
      <point x="338" y="537"/>
      <point x="468" y="517"/>
      <point x="468" y="350" type="curve" smooth="yes"/>
      <point x="468" y="0" type="line"/>
      <point x="385" y="0" type="line"/>
      <point x="385" y="72" type="line"/>
      <point x="381" y="72" type="line"/>
      <point x="363" y="36"/>
      <point x="315" y="-13"/>
      <point x="223" y="-13" type="curve" smooth="yes"/>
      <point x="122" y="-13"/>
      <point x="42" y="46"/>
    </contour>
    <contour>
      <point x="126" y="146" type="curve" smooth="yes"/>
      <point x="126" y="90"/>
      <point x="173" y="62"/>
      <point x="237" y="62" type="curve" smooth="yes"/>
      <point x="332" y="62"/>
      <point x="385" y="126"/>
      <point x="385" y="192" type="curve" smooth="yes"/>
      <point x="385" y="246" type="line"/>
      <point x="251" y="236" type="line" smooth="yes"/>
      <point x="175" y="231"/>
      <point x="126" y="204"/>
    </contour>
  </outline>
</glyph>
<glyph name="ae" format="2">
  <advance width="884"/>
  <unicode hex="00E6"/>
  <outline>
    <contour>
      <point x="623" y="-11" type="curve" smooth="yes"/>
      <point x="528" y="-11"/>
      <point x="456" y="31"/>
      <point x="422" y="96" type="curve"/>
      <point x="419" y="96" type="line"/>
      <point x="398" y="36"/>
      <point x="317" y="-13"/>
      <point x="223" y="-13" type="curve" smooth="yes"/>
      <point x="122" y="-13"/>
      <point x="42" y="46"/>
      <point x="42" y="150" type="curve" smooth="yes"/>
      <point x="42" y="272"/>
      <point x="149" y="294"/>
      <point x="241" y="301" type="curve" smooth="yes"/>
      <point x="385" y="309" type="line"/>
      <point x="385" y="357" type="line" smooth="yes"/>
      <point x="385" y="424"/>
      <point x="345" y="464"/>
      <point x="265" y="464" type="curve" smooth="yes"/>
      <point x="198" y="464"/>
      <point x="158" y="433"/>
      <point x="146" y="393" type="curve"/>
      <point x="58" y="393" type="line"/>
      <point x="69" y="478"/>
      <point x="152" y="537"/>
      <point x="269" y="537" type="curve" smooth="yes"/>
      <point x="322" y="537"/>
      <point x="404" y="526"/>
      <point x="444" y="453" type="curve"/>
      <point x="481" y="506"/>
      <point x="539" y="537"/>
      <point x="614" y="537" type="curve" smooth="yes"/>
      <point x="725" y="537"/>
      <point x="843" y="468"/>
      <point x="843" y="272" type="curve" smooth="yes"/>
      <point x="843" y="237" type="line"/>
      <point x="459" y="237" type="line"/>
      <point x="463" y="125"/>
      <point x="528" y="63"/>
      <point x="622" y="63" type="curve" smooth="yes"/>
      <point x="685" y="63"/>
      <point x="733" y="91"/>
      <point x="754" y="146" type="curve"/>
      <point x="835" y="124" type="line"/>
      <point x="811" y="44"/>
      <point x="730" y="-11"/>
    </contour>
    <contour>
      <point x="126" y="147" type="curve" smooth="yes"/>
      <point x="126" y="90"/>
      <point x="173" y="62"/>
      <point x="237" y="62" type="curve" smooth="yes"/>
      <point x="332" y="62"/>
      <point x="385" y="126"/>
      <point x="385" y="192" type="curve" smooth="yes"/>
      <point x="385" y="239" type="line"/>
      <point x="251" y="229" type="line" smooth="yes"/>
      <point x="175" y="224"/>
      <point x="126" y="204"/>
    </contour>
    <contour>
      <point x="460" y="309" type="curve"/>
      <point x="758" y="309" type="line"/>
      <point x="758" y="398"/>
      <point x="701" y="463"/>
      <point x="614" y="463" type="curve" smooth="yes"/>
      <point x="522" y="463"/>
      <point x="465" y="391"/>
    </contour>
  </outline>
</glyph>
<glyph name="ccedilla" format="2">
  <advance width="529"/>
  <unicode hex="00E7"/>
  <outline>
    <contour>
      <point x="42" y="263" type="curve" smooth="yes"/>
      <point x="42" y="424"/>
      <point x="137" y="537"/>
      <point x="282" y="537" type="curve" smooth="yes"/>
      <point x="395" y="537"/>
      <point x="479" y="471"/>
      <point x="493" y="370" type="curve"/>
      <point x="409" y="370" type="line"/>
      <point x="397" y="419"/>
      <point x="354" y="463"/>
      <point x="284" y="463" type="curve" smooth="yes"/>
      <point x="189" y="463"/>
      <point x="126" y="385"/>
      <point x="126" y="266" type="curve" smooth="yes"/>
      <point x="126" y="143"/>
      <point x="187" y="64"/>
      <point x="284" y="64" type="curve" smooth="yes"/>
      <point x="346" y="64"/>
      <point x="394" y="97"/>
      <point x="409" y="156" type="curve"/>
      <point x="493" y="156" type="line"/>
      <point x="480" y="69"/>
      <point x="414" y="0"/>
      <point x="311" y="-10" type="curve"/>
      <point x="308" y="-24" type="line"/>
      <point x="344" y="-30"/>
      <point x="380" y="-52"/>
      <point x="380" y="-106" type="curve" smooth="yes"/>
      <point x="380" y="-166"/>
      <point x="329" y="-208"/>
      <point x="233" y="-208" type="curve"/>
      <point x="230" y="-153" type="line"/>
      <point x="274" y="-153"/>
      <point x="306" y="-140"/>
      <point x="306" y="-109" type="curve" smooth="yes"/>
      <point x="306" y="-78"/>
      <point x="284" y="-69"/>
      <point x="231" y="-64" type="curve"/>
      <point x="243" y="-8" type="line"/>
      <point x="117" y="11"/>
      <point x="42" y="119"/>
    </contour>
  </outline>
</glyph>
<glyph name="eacute" format="2">
  <advance width="552"/>
  <unicode hex="00E9"/>
  <outline>
    <contour>
      <point x="290" y="-11" type="curve" smooth="yes"/>
      <point x="137" y="-11"/>
      <point x="42" y="98"/>
      <point x="42" y="261" type="curve" smooth="yes"/>
      <point x="42" y="424"/>
      <point x="137" y="537"/>
      <point x="282" y="537" type="curve" smooth="yes"/>
      <point x="393" y="537"/>
      <point x="511" y="468"/>
      <point x="511" y="272" type="curve" smooth="yes"/>
      <point x="511" y="237" type="line"/>
      <point x="126" y="237" type="line"/>
      <point x="130" y="125"/>
      <point x="195" y="63"/>
      <point x="290" y="63" type="curve" smooth="yes"/>
      <point x="353" y="63"/>
      <point x="393" y="91"/>
      <point x="413" y="124" type="curve"/>
      <point x="503" y="124" type="line"/>
      <point x="478" y="44"/>
      <point x="399" y="-11"/>
    </contour>
    <contour>
      <point x="240" y="603" type="line"/>
      <point x="324" y="763" type="line"/>
      <point x="421" y="763" type="line"/>
      <point x="312" y="603" type="line"/>
    </contour>
    <contour>
      <point x="127" y="309" type="curve"/>
      <point x="426" y="309" type="line"/>
      <point x="426" y="398"/>
      <point x="369" y="463"/>
      <point x="282" y="463" type="curve" smooth="yes"/>
      <point x="190" y="463"/>
      <point x="132" y="391"/>
    </contour>
  </outline>
</glyph>
<glyph name="ecircumflex" format="2">
  <advance width="552"/>
  <unicode hex="00EA"/>
  <outline>
    <contour>
      <point x="290" y="-11" type="curve" smooth="yes"/>
      <point x="137" y="-11"/>
      <point x="42" y="98"/>
      <point x="42" y="261" type="curve" smooth="yes"/>
      <point x="42" y="424"/>
      <point x="137" y="537"/>
      <point x="282" y="537" type="curve" smooth="yes"/>
      <point x="393" y="537"/>
      <point x="511" y="468"/>
      <point x="511" y="272" type="curve" smooth="yes"/>
      <point x="511" y="237" type="line"/>
      <point x="126" y="237" type="line"/>
      <point x="130" y="125"/>
      <point x="195" y="63"/>
      <point x="290" y="63" type="curve" smooth="yes"/>
      <point x="353" y="63"/>
      <point x="393" y="91"/>
      <point x="413" y="124" type="curve"/>
      <point x="503" y="124" type="line"/>
      <point x="478" y="44"/>
      <point x="399" y="-11"/>
    </contour>
    <contour>
      <point x="349" y="594" type="line"/>
      <point x="276" y="689" type="line"/>
      <point x="205" y="594" type="line"/>
      <point x="125" y="594" type="line"/>
      <point x="125" y="600" type="line"/>
      <point x="238" y="743" type="line"/>
      <point x="314" y="743" type="line"/>
      <point x="428" y="600" type="line"/>
      <point x="428" y="594" type="line"/>
    </contour>
    <contour>
      <point x="127" y="309" type="curve"/>
      <point x="426" y="309" type="line"/>
      <point x="426" y="398"/>
      <point x="369" y="463"/>
      <point x="282" y="463" type="curve" smooth="yes"/>
      <point x="190" y="463"/>
      <point x="132" y="391"/>
    </contour>
  </outline>
</glyph>
<glyph name="edieresis" format="2">
  <advance width="552"/>
  <unicode hex="00EB"/>
  <outline>
    <contour>
      <point x="290" y="-11" type="curve" smooth="yes"/>
      <point x="137" y="-11"/>
      <point x="42" y="98"/>
      <point x="42" y="261" type="curve" smooth="yes"/>
      <point x="42" y="424"/>
      <point x="137" y="537"/>
      <point x="282" y="537" type="curve" smooth="yes"/>
      <point x="393" y="537"/>
      <point x="511" y="468"/>
      <point x="511" y="272" type="curve" smooth="yes"/>
      <point x="511" y="237" type="line"/>
      <point x="126" y="237" type="line"/>
      <point x="130" y="125"/>
      <point x="195" y="63"/>
      <point x="290" y="63" type="curve" smooth="yes"/>
      <point x="353" y="63"/>
      <point x="393" y="91"/>
      <point x="413" y="124" type="curve"/>
      <point x="503" y="124" type="line"/>
      <point x="478" y="44"/>
      <point x="399" y="-11"/>
    </contour>
    <contour>
      <point x="178" y="618" type="curve" smooth="yes"/>
      <point x="149" y="618"/>
      <point x="122" y="645"/>
      <point x="122" y="674" type="curve" smooth="yes"/>
      <point x="122" y="706"/>
      <point x="149" y="729"/>
      <point x="178" y="729" type="curve" smooth="yes"/>
      <point x="211" y="729"/>
      <point x="234" y="706"/>
      <point x="234" y="674" type="curve" smooth="yes"/>
      <point x="234" y="645"/>
      <point x="211" y="618"/>
    </contour>
    <contour>
      <point x="378" y="618" type="curve" smooth="yes"/>
      <point x="348" y="618"/>
      <point x="321" y="645"/>
      <point x="321" y="674" type="curve" smooth="yes"/>
      <point x="321" y="706"/>
      <point x="348" y="729"/>
      <point x="378" y="729" type="curve" smooth="yes"/>
      <point x="409" y="729"/>
      <point x="434" y="706"/>
      <point x="434" y="674" type="curve" smooth="yes"/>
      <point x="434" y="645"/>
      <point x="409" y="618"/>
    </contour>
    <contour>
      <point x="127" y="309" type="curve"/>
      <point x="426" y="309" type="line"/>
      <point x="426" y="398"/>
      <point x="369" y="463"/>
      <point x="282" y="463" type="curve" smooth="yes"/>
      <point x="190" y="463"/>
      <point x="132" y="391"/>
    </contour>
  </outline>
</glyph>
<glyph name="igrave" format="2">
  <advance width="217"/>
  <unicode hex="00EC"/>
  <outline>
    <contour>
      <point x="67" y="0" type="line"/>
      <point x="67" y="530" type="line"/>
      <point x="151" y="530" type="line"/>
      <point x="151" y="0" type="line"/>
    </contour>
    <contour>
      <point x="74" y="603" type="line"/>
      <point x="-33" y="763" type="line"/>
      <point x="64" y="763" type="line"/>
      <point x="147" y="603" type="line"/>
    </contour>
  </outline>
</glyph>
<glyph name="iacute" format="2">
  <advance width="217"/>
  <unicode hex="00ED"/>
  <outline>
    <contour>
      <point x="67" y="0" type="line"/>
      <point x="67" y="530" type="line"/>
      <point x="151" y="530" type="line"/>
      <point x="151" y="0" type="line"/>
    </contour>
    <contour>
      <point x="72" y="603" type="line"/>
      <point x="156" y="763" type="line"/>
      <point x="253" y="763" type="line"/>
      <point x="145" y="603" type="line"/>
    </contour>
  </outline>
</glyph>
<glyph name="icircumflex" format="2">
  <advance width="217"/>
  <unicode hex="00EE"/>
  <outline>
    <contour>
      <point x="67" y="0" type="line"/>
      <point x="67" y="530" type="line"/>
      <point x="151" y="530" type="line"/>
      <point x="151" y="0" type="line"/>
    </contour>
    <contour>
      <point x="181" y="594" type="line"/>
      <point x="108" y="689" type="line"/>
      <point x="37" y="594" type="line"/>
      <point x="-43" y="594" type="line"/>
      <point x="-43" y="600" type="line"/>
      <point x="70" y="743" type="line"/>
      <point x="146" y="743" type="line"/>
      <point x="260" y="600" type="line"/>
      <point x="260" y="594" type="line"/>
    </contour>
  </outline>
</glyph>
<glyph name="idieresis" format="2">
  <advance width="217"/>
  <unicode hex="00EF"/>
  <outline>
    <contour>
      <point x="67" y="0" type="line"/>
      <point x="67" y="530" type="line"/>
      <point x="151" y="530" type="line"/>
      <point x="151" y="0" type="line"/>
    </contour>
    <contour>
      <point x="10" y="618" type="curve" smooth="yes"/>
      <point x="-19" y="618"/>
      <point x="-46" y="645"/>
      <point x="-46" y="674" type="curve" smooth="yes"/>
      <point x="-46" y="706"/>
      <point x="-19" y="729"/>
      <point x="10" y="729" type="curve" smooth="yes"/>
      <point x="43" y="729"/>
      <point x="66" y="706"/>
      <point x="66" y="674" type="curve" smooth="yes"/>
      <point x="66" y="645"/>
      <point x="43" y="618"/>
    </contour>
    <contour>
      <point x="210" y="618" type="curve" smooth="yes"/>
      <point x="180" y="618"/>
      <point x="153" y="645"/>
      <point x="153" y="674" type="curve" smooth="yes"/>
      <point x="153" y="706"/>
      <point x="180" y="729"/>
      <point x="210" y="729" type="curve" smooth="yes"/>
      <point x="241" y="729"/>
      <point x="266" y="706"/>
      <point x="266" y="674" type="curve" smooth="yes"/>
      <point x="266" y="645"/>
      <point x="241" y="618"/>
    </contour>
  </outline>
</glyph>
<glyph name="eth" format="2">
  <advance width="550"/>
  <unicode hex="00F0"/>
  <outline>
    <contour>
      <point x="451" y="673" type="line"/>
      <point x="354" y="626" type="line"/>
      <point x="441" y="536"/>
      <point x="508" y="412"/>
      <point x="508" y="261" type="curve" smooth="yes"/>
      <point x="508" y="89"/>
      <point x="416" y="-11"/>
      <point x="275" y="-11" type="curve" smooth="yes"/>
      <point x="132" y="-11"/>
      <point x="42" y="96"/>
      <point x="42" y="243" type="curve" smooth="yes"/>
      <point x="42" y="392"/>
      <point x="136" y="497"/>
      <point x="254" y="497" type="curve" smooth="yes"/>
      <point x="334" y="497"/>
      <point x="383" y="449"/>
      <point x="407" y="408" type="curve"/>
      <point x="414" y="408" type="line"/>
      <point x="394" y="464"/>
      <point x="357" y="532"/>
      <point x="291" y="595" type="curve"/>
      <point x="166" y="534" type="line"/>
      <point x="144" y="586" type="line"/>
      <point x="243" y="635" type="line"/>
      <point x="216" y="655"/>
      <point x="185" y="674"/>
      <point x="149" y="692" type="curve"/>
      <point x="185" y="751" type="line"/>
      <point x="227" y="730"/>
      <point x="270" y="702"/>
      <point x="311" y="667" type="curve"/>
      <point x="429" y="725" type="line"/>
    </contour>
    <contour>
      <point x="275" y="63" type="curve" smooth="yes"/>
      <point x="375" y="63"/>
      <point x="428" y="140"/>
      <point x="428" y="238" type="curve" smooth="yes"/>
      <point x="428" y="327"/>
      <point x="382" y="428"/>
      <point x="275" y="428" type="curve" smooth="yes"/>
      <point x="175" y="428"/>
      <point x="126" y="343"/>
      <point x="126" y="244" type="curve" smooth="yes"/>
      <point x="126" y="149"/>
      <point x="171" y="63"/>
    </contour>
  </outline>
</glyph>
<glyph name="ntilde" format="2">
  <advance width="556"/>
  <unicode hex="00F1"/>
  <outline>
    <contour>
      <point x="151" y="318" type="curve" smooth="yes"/>
      <point x="151" y="0" type="line"/>
      <point x="67" y="0" type="line"/>
      <point x="67" y="530" type="line"/>
      <point x="148" y="530" type="line"/>
      <point x="148" y="447" type="line"/>
      <point x="155" y="447" type="line"/>
      <point x="180" y="501"/>
      <point x="230" y="537"/>
      <point x="311" y="537" type="curve" smooth="yes"/>
      <point x="418" y="537"/>
      <point x="489" y="472"/>
      <point x="489" y="337" type="curve" smooth="yes"/>
      <point x="489" y="0" type="line"/>
      <point x="405" y="0" type="line"/>
      <point x="405" y="331" type="line" smooth="yes"/>
      <point x="405" y="413"/>
      <point x="360" y="462"/>
      <point x="285" y="462" type="curve" smooth="yes"/>
      <point x="208" y="462"/>
      <point x="151" y="410"/>
    </contour>
    <contour>
      <point x="107" y="597" type="line"/>
      <point x="107" y="668"/>
      <point x="154" y="718"/>
      <point x="213" y="718" type="curve" smooth="yes"/>
      <point x="267" y="718"/>
      <point x="290" y="674"/>
      <point x="339" y="674" type="curve" smooth="yes"/>
      <point x="365" y="674"/>
      <point x="386" y="697"/>
      <point x="386" y="726" type="curve"/>
      <point x="449" y="721" type="line"/>
      <point x="449" y="648"/>
      <point x="403" y="603"/>
      <point x="343" y="603" type="curve" smooth="yes"/>
      <point x="280" y="603"/>
      <point x="270" y="646"/>
      <point x="218" y="646" type="curve" smooth="yes"/>
      <point x="192" y="646"/>
      <point x="173" y="623"/>
      <point x="173" y="594" type="curve"/>
    </contour>
  </outline>
</glyph>
<glyph name="ograve" format="2">
  <advance width="567"/>
  <unicode hex="00F2"/>
  <outline>
    <contour>
      <point x="284" y="-11" type="curve" smooth="yes"/>
      <point x="139" y="-11"/>
      <point x="42" y="98"/>
      <point x="42" y="263" type="curve" smooth="yes"/>
      <point x="42" y="428"/>
      <point x="139" y="537"/>
      <point x="284" y="537" type="curve" smooth="yes"/>
      <point x="428" y="537"/>
      <point x="524" y="428"/>
      <point x="524" y="263" type="curve" smooth="yes"/>
      <point x="524" y="98"/>
      <point x="428" y="-11"/>
    </contour>
    <contour>
      <point x="284" y="63" type="curve" smooth="yes"/>
      <point x="390" y="63"/>
      <point x="440" y="158"/>
      <point x="440" y="263" type="curve" smooth="yes"/>
      <point x="440" y="368"/>
      <point x="390" y="463"/>
      <point x="284" y="463" type="curve" smooth="yes"/>
      <point x="176" y="463"/>
      <point x="126" y="368"/>
      <point x="126" y="263" type="curve" smooth="yes"/>
      <point x="126" y="158"/>
      <point x="176" y="63"/>
    </contour>
    <contour>
      <point x="249" y="603" type="line"/>
      <point x="142" y="763" type="line"/>
      <point x="239" y="763" type="line"/>
      <point x="322" y="603" type="line"/>
    </contour>
  </outline>
</glyph>
<glyph name="oacute" format="2">
  <advance width="567"/>
  <unicode hex="00F3"/>
  <outline>
    <contour>
      <point x="284" y="-11" type="curve" smooth="yes"/>
      <point x="139" y="-11"/>
      <point x="42" y="98"/>
      <point x="42" y="263" type="curve" smooth="yes"/>
      <point x="42" y="428"/>
      <point x="139" y="537"/>
      <point x="284" y="537" type="curve" smooth="yes"/>
      <point x="428" y="537"/>
      <point x="524" y="428"/>
      <point x="524" y="263" type="curve" smooth="yes"/>
      <point x="524" y="98"/>
      <point x="428" y="-11"/>
    </contour>
    <contour>
      <point x="284" y="63" type="curve" smooth="yes"/>
      <point x="390" y="63"/>
      <point x="440" y="158"/>
      <point x="440" y="263" type="curve" smooth="yes"/>
      <point x="440" y="368"/>
      <point x="390" y="463"/>
      <point x="284" y="463" type="curve" smooth="yes"/>
      <point x="176" y="463"/>
      <point x="126" y="368"/>
      <point x="126" y="263" type="curve" smooth="yes"/>
      <point x="126" y="158"/>
      <point x="176" y="63"/>
    </contour>
    <contour>
      <point x="247" y="603" type="line"/>
      <point x="331" y="763" type="line"/>
      <point x="428" y="763" type="line"/>
      <point x="319" y="603" type="line"/>
    </contour>
  </outline>
</glyph>
<glyph name="ocircumflex" format="2">
  <advance width="567"/>
  <unicode hex="00F4"/>
  <outline>
    <contour>
      <point x="284" y="-11" type="curve" smooth="yes"/>
      <point x="139" y="-11"/>
      <point x="42" y="98"/>
      <point x="42" y="263" type="curve" smooth="yes"/>
      <point x="42" y="428"/>
      <point x="139" y="537"/>
      <point x="284" y="537" type="curve" smooth="yes"/>
      <point x="428" y="537"/>
      <point x="524" y="428"/>
      <point x="524" y="263" type="curve" smooth="yes"/>
      <point x="524" y="98"/>
      <point x="428" y="-11"/>
    </contour>
    <contour>
      <point x="284" y="63" type="curve" smooth="yes"/>
      <point x="390" y="63"/>
      <point x="440" y="158"/>
      <point x="440" y="263" type="curve" smooth="yes"/>
      <point x="440" y="368"/>
      <point x="390" y="463"/>
      <point x="284" y="463" type="curve" smooth="yes"/>
      <point x="176" y="463"/>
      <point x="126" y="368"/>
      <point x="126" y="263" type="curve" smooth="yes"/>
      <point x="126" y="158"/>
      <point x="176" y="63"/>
    </contour>
    <contour>
      <point x="355" y="594" type="line"/>
      <point x="283" y="689" type="line"/>
      <point x="212" y="594" type="line"/>
      <point x="132" y="594" type="line"/>
      <point x="132" y="600" type="line"/>
      <point x="245" y="743" type="line"/>
      <point x="321" y="743" type="line"/>
      <point x="435" y="600" type="line"/>
      <point x="435" y="594" type="line"/>
    </contour>
  </outline>
</glyph>
<glyph name="odieresis" format="2">
  <advance width="567"/>
  <unicode hex="00F6"/>
  <outline>
    <contour>
      <point x="284" y="-11" type="curve" smooth="yes"/>
      <point x="139" y="-11"/>
      <point x="42" y="98"/>
      <point x="42" y="263" type="curve" smooth="yes"/>
      <point x="42" y="428"/>
      <point x="139" y="537"/>
      <point x="284" y="537" type="curve" smooth="yes"/>
      <point x="428" y="537"/>
      <point x="524" y="428"/>
      <point x="524" y="263" type="curve" smooth="yes"/>
      <point x="524" y="98"/>
      <point x="428" y="-11"/>
    </contour>
    <contour>
      <point x="284" y="63" type="curve" smooth="yes"/>
      <point x="390" y="63"/>
      <point x="440" y="158"/>
      <point x="440" y="263" type="curve" smooth="yes"/>
      <point x="440" y="368"/>
      <point x="390" y="463"/>
      <point x="284" y="463" type="curve" smooth="yes"/>
      <point x="176" y="463"/>
      <point x="126" y="368"/>
      <point x="126" y="263" type="curve" smooth="yes"/>
      <point x="126" y="158"/>
      <point x="176" y="63"/>
    </contour>
    <contour>
      <point x="185" y="618" type="curve" smooth="yes"/>
      <point x="156" y="618"/>
      <point x="129" y="645"/>
      <point x="129" y="674" type="curve" smooth="yes"/>
      <point x="129" y="706"/>
      <point x="156" y="729"/>
      <point x="185" y="729" type="curve" smooth="yes"/>
      <point x="218" y="729"/>
      <point x="241" y="706"/>
      <point x="241" y="674" type="curve" smooth="yes"/>
      <point x="241" y="645"/>
      <point x="218" y="618"/>
    </contour>
    <contour>
      <point x="385" y="618" type="curve" smooth="yes"/>
      <point x="355" y="618"/>
      <point x="328" y="645"/>
      <point x="328" y="674" type="curve" smooth="yes"/>
      <point x="328" y="706"/>
      <point x="355" y="729"/>
      <point x="385" y="729" type="curve" smooth="yes"/>
      <point x="416" y="729"/>
      <point x="440" y="706"/>
      <point x="440" y="674" type="curve" smooth="yes"/>
      <point x="440" y="645"/>
      <point x="416" y="618"/>
    </contour>
  </outline>
</glyph>
<glyph name="oslash" format="2">
  <advance width="567"/>
  <unicode hex="00F8"/>
  <outline>
    <contour>
      <point x="124" y="-29" type="line"/>
      <point x="71" y="7" type="line"/>
      <point x="109" y="63" type="line"/>
      <point x="66" y="111"/>
      <point x="42" y="180"/>
      <point x="42" y="263" type="curve" smooth="yes"/>
      <point x="42" y="428"/>
      <point x="139" y="537"/>
      <point x="284" y="537" type="curve" smooth="yes"/>
      <point x="330" y="537"/>
      <point x="372" y="526"/>
      <point x="407" y="505" type="curve"/>
      <point x="441" y="556" type="line"/>
      <point x="494" y="520" type="line"/>
      <point x="457" y="464" type="line"/>
      <point x="499" y="416"/>
      <point x="524" y="346"/>
      <point x="524" y="263" type="curve" smooth="yes"/>
      <point x="524" y="98"/>
      <point x="428" y="-11"/>
      <point x="284" y="-11" type="curve" smooth="yes"/>
      <point x="237" y="-11"/>
      <point x="194" y="1"/>
      <point x="159" y="22" type="curve"/>
    </contour>
    <contour>
      <point x="284" y="63" type="curve" smooth="yes"/>
      <point x="390" y="63"/>
      <point x="440" y="158"/>
      <point x="440" y="263" type="curve" smooth="yes"/>
      <point x="440" y="311"/>
      <point x="430" y="357"/>
      <point x="409" y="393" type="curve"/>
      <point x="202" y="87" type="line"/>
      <point x="224" y="72"/>
      <point x="251" y="63"/>
    </contour>
    <contour>
      <point x="126" y="263" type="curve" smooth="yes"/>
      <point x="126" y="215"/>
      <point x="136" y="170"/>
      <point x="157" y="135" type="curve"/>
      <point x="364" y="440" type="line"/>
      <point x="342" y="454"/>
      <point x="315" y="463"/>
      <point x="284" y="463" type="curve" smooth="yes"/>
      <point x="176" y="463"/>
      <point x="126" y="368"/>
    </contour>
  </outline>
</glyph>
<glyph name="uacute" format="2">
  <advance width="552"/>
  <unicode hex="00FA"/>
  <outline>
    <contour>
      <point x="402" y="218" type="curve" smooth="yes"/>
      <point x="402" y="530" type="line"/>
      <point x="485" y="530" type="line"/>
      <point x="485" y="0" type="line"/>
      <point x="402" y="0" type="line"/>
      <point x="402" y="90" type="line"/>
      <point x="396" y="90" type="line"/>
      <point x="371" y="36"/>
      <point x="319" y="-7"/>
      <point x="239" y="-7" type="curve" smooth="yes"/>
      <point x="138" y="-7"/>
      <point x="67" y="58"/>
      <point x="67" y="193" type="curve" smooth="yes"/>
      <point x="67" y="530" type="line"/>
      <point x="151" y="530" type="line"/>
      <point x="151" y="199" type="line" smooth="yes"/>
      <point x="151" y="123"/>
      <point x="200" y="74"/>
      <point x="267" y="74" type="curve" smooth="yes"/>
      <point x="327" y="74"/>
      <point x="402" y="119"/>
    </contour>
    <contour>
      <point x="240" y="603" type="line"/>
      <point x="324" y="763" type="line"/>
      <point x="421" y="763" type="line"/>
      <point x="312" y="603" type="line"/>
    </contour>
  </outline>
</glyph>
<glyph name="ucircumflex" format="2">
  <advance width="552"/>
  <unicode hex="00FB"/>
  <outline>
    <contour>
      <point x="402" y="218" type="curve" smooth="yes"/>
      <point x="402" y="530" type="line"/>
      <point x="485" y="530" type="line"/>
      <point x="485" y="0" type="line"/>
      <point x="402" y="0" type="line"/>
      <point x="402" y="90" type="line"/>
      <point x="396" y="90" type="line"/>
      <point x="371" y="36"/>
      <point x="319" y="-7"/>
      <point x="239" y="-7" type="curve" smooth="yes"/>
      <point x="138" y="-7"/>
      <point x="67" y="58"/>
      <point x="67" y="193" type="curve" smooth="yes"/>
      <point x="67" y="530" type="line"/>
      <point x="151" y="530" type="line"/>
      <point x="151" y="199" type="line" smooth="yes"/>
      <point x="151" y="123"/>
      <point x="200" y="74"/>
      <point x="267" y="74" type="curve" smooth="yes"/>
      <point x="327" y="74"/>
      <point x="402" y="119"/>
    </contour>
    <contour>
      <point x="349" y="594" type="line"/>
      <point x="276" y="689" type="line"/>
      <point x="205" y="594" type="line"/>
      <point x="125" y="594" type="line"/>
      <point x="125" y="600" type="line"/>
      <point x="238" y="743" type="line"/>
      <point x="314" y="743" type="line"/>
      <point x="428" y="600" type="line"/>
      <point x="428" y="594" type="line"/>
    </contour>
  </outline>
</glyph>
<glyph name="udieresis" format="2">
  <advance width="552"/>
  <unicode hex="00FC"/>
  <outline>
    <contour>
      <point x="402" y="218" type="curve" smooth="yes"/>
      <point x="402" y="530" type="line"/>
      <point x="485" y="530" type="line"/>
      <point x="485" y="0" type="line"/>
      <point x="402" y="0" type="line"/>
      <point x="402" y="90" type="line"/>
      <point x="396" y="90" type="line"/>
      <point x="371" y="36"/>
      <point x="319" y="-7"/>
      <point x="239" y="-7" type="curve" smooth="yes"/>
      <point x="138" y="-7"/>
      <point x="67" y="58"/>
      <point x="67" y="193" type="curve" smooth="yes"/>
      <point x="67" y="530" type="line"/>
      <point x="151" y="530" type="line"/>
      <point x="151" y="199" type="line" smooth="yes"/>
      <point x="151" y="123"/>
      <point x="200" y="74"/>
      <point x="267" y="74" type="curve" smooth="yes"/>
      <point x="327" y="74"/>
      <point x="402" y="119"/>
    </contour>
    <contour>
      <point x="178" y="618" type="curve" smooth="yes"/>
      <point x="149" y="618"/>
      <point x="122" y="645"/>
      <point x="122" y="674" type="curve" smooth="yes"/>
      <point x="122" y="706"/>
      <point x="149" y="729"/>
      <point x="178" y="729" type="curve" smooth="yes"/>
      <point x="211" y="729"/>
      <point x="234" y="706"/>
      <point x="234" y="674" type="curve" smooth="yes"/>
      <point x="234" y="645"/>
      <point x="211" y="618"/>
    </contour>
    <contour>
      <point x="378" y="618" type="curve" smooth="yes"/>
      <point x="348" y="618"/>
      <point x="321" y="645"/>
      <point x="321" y="674" type="curve" smooth="yes"/>
      <point x="321" y="706"/>
      <point x="348" y="729"/>
      <point x="378" y="729" type="curve" smooth="yes"/>
      <point x="409" y="729"/>
      <point x="434" y="706"/>
      <point x="434" y="674" type="curve" smooth="yes"/>
      <point x="434" y="645"/>
      <point x="409" y="618"/>
    </contour>
  </outline>
</glyph>
<glyph name="thorn" format="2">
  <advance width="579"/>
  <unicode hex="00FE"/>
  <outline>
    <contour>
      <point x="67" y="707" type="line"/>
      <point x="151" y="707" type="line"/>
      <point x="151" y="447" type="line"/>
      <point x="158" y="447" type="line"/>
      <point x="176" y="475"/>
      <point x="209" y="537"/>
      <point x="311" y="537" type="curve" smooth="yes"/>
      <point x="445" y="537"/>
      <point x="536" y="432"/>
      <point x="536" y="264" type="curve" smooth="yes"/>
      <point x="536" y="95"/>
      <point x="444" y="-11"/>
      <point x="312" y="-11" type="curve" smooth="yes"/>
      <point x="210" y="-11"/>
      <point x="176" y="51"/>
      <point x="158" y="81" type="curve"/>
      <point x="151" y="81" type="line"/>
      <point x="151" y="-199" type="line"/>
      <point x="67" y="-199" type="line"/>
    </contour>
    <contour>
      <point x="452" y="266" type="curve" smooth="yes"/>
      <point x="453" y="376"/>
      <point x="403" y="462"/>
      <point x="300" y="462" type="curve" smooth="yes"/>
      <point x="201" y="462"/>
      <point x="149" y="383"/>
      <point x="149" y="266" type="curve" smooth="yes"/>
      <point x="149" y="147"/>
      <point x="202" y="64"/>
      <point x="300" y="64" type="curve" smooth="yes"/>
      <point x="401" y="64"/>
      <point x="453" y="153"/>
    </contour>
  </outline>
</glyph>
<glyph name="ydieresis" format="2">
  <advance width="529"/>
  <unicode hex="00FF"/>
  <outline>
    <contour>
      <point x="121" y="-199" type="curve" smooth="yes"/>
      <point x="102" y="-199"/>
      <point x="85" y="-198"/>
      <point x="74" y="-197" type="curve"/>
      <point x="74" y="-122" type="line"/>
      <point x="83" y="-123"/>
      <point x="102" y="-124"/>
      <point x="115" y="-124" type="curve" smooth="yes"/>
      <point x="149" y="-124"/>
      <point x="178" y="-121"/>
      <point x="206" y="-44" type="curve" smooth="yes"/>
      <point x="222" y="-4" type="line"/>
      <point x="25" y="530" type="line"/>
      <point x="117" y="530" type="line"/>
      <point x="262" y="109" type="line"/>
      <point x="268" y="109" type="line"/>
      <point x="412" y="530" type="line"/>
      <point x="504" y="530" type="line"/>
      <point x="279" y="-76" type="line" smooth="yes"/>
      <point x="248" y="-159"/>
      <point x="196" y="-199"/>
    </contour>
    <contour>
      <point x="165" y="618" type="curve" smooth="yes"/>
      <point x="136" y="618"/>
      <point x="109" y="645"/>
      <point x="109" y="674" type="curve" smooth="yes"/>
      <point x="109" y="706"/>
      <point x="136" y="729"/>
      <point x="165" y="729" type="curve" smooth="yes"/>
      <point x="198" y="729"/>
      <point x="222" y="706"/>
      <point x="222" y="674" type="curve" smooth="yes"/>
      <point x="222" y="645"/>
      <point x="198" y="618"/>
    </contour>
    <contour>
      <point x="365" y="618" type="curve" smooth="yes"/>
      <point x="335" y="618"/>
      <point x="309" y="645"/>
      <point x="309" y="674" type="curve" smooth="yes"/>
      <point x="309" y="706"/>
      <point x="335" y="729"/>
      <point x="365" y="729" type="curve" smooth="yes"/>
      <point x="396" y="729"/>
      <point x="421" y="706"/>
      <point x="421" y="674" type="curve" smooth="yes"/>
      <point x="421" y="645"/>
      <point x="396" y="618"/>
    </contour>
  </outline>
</glyph>
<glyph name="Lslash" format="2">
  <advance width="534"/>
  <unicode hex="0141"/>
  <outline>
    <contour>
      <point x="295" y="442" type="line"/>
      <point x="295" y="380" type="line"/>
      <point x="167" y="340" type="line"/>
      <point x="167" y="78" type="line"/>
      <point x="495" y="78" type="line"/>
      <point x="495" y="0" type="line"/>
      <point x="79" y="0" type="line"/>
      <point x="79" y="312" type="line"/>
      <point x="13" y="291" type="line"/>
      <point x="13" y="354" type="line"/>
      <point x="79" y="375" type="line"/>
      <point x="79" y="707" type="line"/>
      <point x="167" y="707" type="line"/>
      <point x="167" y="402" type="line"/>
    </contour>
  </outline>
</glyph>
<glyph name="lslash" format="2">
  <advance width="216"/>
  <unicode hex="0142"/>
  <outline>
    <contour>
      <point x="226" y="442" type="line"/>
      <point x="226" y="381" type="line"/>
      <point x="151" y="354" type="line"/>
      <point x="151" y="0" type="line"/>
      <point x="67" y="0" type="line"/>
      <point x="67" y="322" type="line"/>
      <point x="-9" y="293" type="line"/>
      <point x="-9" y="354" type="line"/>
      <point x="67" y="384" type="line"/>
      <point x="67" y="707" type="line"/>
      <point x="151" y="707" type="line"/>
      <point x="151" y="415" type="line"/>
    </contour>
  </outline>
</glyph>
<glyph name="OE" format="2">
  <advance width="915"/>
  <unicode hex="0152"/>
  <outline>
    <contour>
      <point x="362" y="0" type="line" smooth="yes"/>
      <point x="175" y="0"/>
      <point x="51" y="142"/>
      <point x="51" y="354" type="curve" smooth="yes"/>
      <point x="51" y="568"/>
      <point x="175" y="707"/>
      <point x="362" y="707" type="curve" smooth="yes"/>
      <point x="854" y="707" type="line"/>
      <point x="854" y="629" type="line"/>
      <point x="514" y="629" type="line"/>
      <point x="514" y="393" type="line"/>
      <point x="832" y="393" type="line"/>
      <point x="832" y="315" type="line"/>
      <point x="514" y="315" type="line"/>
      <point x="514" y="78" type="line"/>
      <point x="859" y="78" type="line"/>
      <point x="859" y="0" type="line"/>
    </contour>
    <contour>
      <point x="136" y="354" type="curve" smooth="yes"/>
      <point x="136" y="188"/>
      <point x="227" y="78"/>
      <point x="362" y="78" type="curve" smooth="yes"/>
      <point x="426" y="78" type="line"/>
      <point x="426" y="629" type="line"/>
      <point x="362" y="629" type="line" smooth="yes"/>
      <point x="227" y="629"/>
      <point x="136" y="521"/>
    </contour>
  </outline>
</glyph>
<glyph name="oe" format="2">
  <advance width="949"/>
  <unicode hex="0153"/>
  <outline>
    <contour>
      <point x="284" y="-11" type="curve" smooth="yes"/>
      <point x="139" y="-11"/>
      <point x="42" y="98"/>
      <point x="42" y="263" type="curve" smooth="yes"/>
      <point x="42" y="428"/>
      <point x="139" y="537"/>
      <point x="284" y="537" type="curve" smooth="yes"/>
      <point x="371" y="537"/>
      <point x="441" y="497"/>
      <point x="483" y="428" type="curve"/>
      <point x="524" y="496"/>
      <point x="594" y="537"/>
      <point x="681" y="537" type="curve" smooth="yes"/>
      <point x="792" y="537"/>
      <point x="909" y="468"/>
      <point x="909" y="272" type="curve" smooth="yes"/>
      <point x="909" y="237" type="line"/>
      <point x="524" y="237" type="line"/>
      <point x="528" y="125"/>
      <point x="593" y="63"/>
      <point x="688" y="63" type="curve" smooth="yes"/>
      <point x="751" y="63"/>
      <point x="792" y="91"/>
      <point x="812" y="124" type="curve"/>
      <point x="901" y="124" type="line"/>
      <point x="876" y="44"/>
      <point x="797" y="-11"/>
      <point x="688" y="-11" type="curve" smooth="yes"/>
      <point x="595" y="-11"/>
      <point x="524" y="30"/>
      <point x="482" y="97" type="curve"/>
      <point x="440" y="29"/>
      <point x="371" y="-11"/>
    </contour>
    <contour>
      <point x="284" y="63" type="curve" smooth="yes"/>
      <point x="390" y="63"/>
      <point x="440" y="158"/>
      <point x="440" y="263" type="curve" smooth="yes"/>
      <point x="440" y="368"/>
      <point x="390" y="463"/>
      <point x="284" y="463" type="curve" smooth="yes"/>
      <point x="176" y="463"/>
      <point x="126" y="368"/>
      <point x="126" y="263" type="curve" smooth="yes"/>
      <point x="126" y="158"/>
      <point x="176" y="63"/>
    </contour>
    <contour>
      <point x="525" y="309" type="curve"/>
      <point x="824" y="309" type="line"/>
      <point x="824" y="398"/>
      <point x="768" y="463"/>
      <point x="681" y="463" type="curve" smooth="yes"/>
      <point x="589" y="463"/>
      <point x="530" y="391"/>
    </contour>
  </outline>
</glyph>
<glyph name="Scaron" format="2">
  <advance width="607"/>
  <unicode hex="0160"/>
  <outline>
    <contour>
      <point x="464" y="529" type="line"/>
      <point x="456" y="598"/>
      <point x="393" y="639"/>
      <point x="308" y="639" type="curve" smooth="yes"/>
      <point x="214" y="639"/>
      <point x="152" y="589"/>
      <point x="152" y="522" type="curve" smooth="yes"/>
      <point x="152" y="448"/>
      <point x="235" y="421"/>
      <point x="289" y="407" type="curve" smooth="yes"/>
      <point x="359" y="388" type="line" smooth="yes"/>
      <point x="435" y="368"/>
      <point x="560" y="324"/>
      <point x="560" y="192" type="curve" smooth="yes"/>
      <point x="560" y="77"/>
      <point x="467" y="-13"/>
      <point x="303" y="-13" type="curve" smooth="yes"/>
      <point x="151" y="-13"/>
      <point x="56" y="67"/>
      <point x="48" y="184" type="curve"/>
      <point x="138" y="184" type="line"/>
      <point x="146" y="105"/>
      <point x="219" y="67"/>
      <point x="303" y="67" type="curve" smooth="yes"/>
      <point x="401" y="67"/>
      <point x="474" y="117"/>
      <point x="474" y="194" type="curve" smooth="yes"/>
      <point x="474" y="262"/>
      <point x="408" y="290"/>
      <point x="334" y="311" type="curve" smooth="yes"/>
      <point x="247" y="334" type="line"/>
      <point x="136" y="366"/>
      <point x="67" y="423"/>
      <point x="67" y="519" type="curve" smooth="yes"/>
      <point x="67" y="638"/>
      <point x="174" y="717"/>
      <point x="311" y="717" type="curve" smooth="yes"/>
      <point x="448" y="717"/>
      <point x="546" y="636"/>
      <point x="550" y="529" type="curve"/>
    </contour>
    <contour>
      <point x="230" y="920" type="line"/>
      <point x="303" y="824" type="line"/>
      <point x="374" y="920" type="line"/>
      <point x="454" y="920" type="line"/>
      <point x="454" y="914" type="line"/>
      <point x="341" y="771" type="line"/>
      <point x="265" y="771" type="line"/>
      <point x="151" y="914" type="line"/>
      <point x="151" y="920" type="line"/>
    </contour>
  </outline>
</glyph>
<glyph name="Ydieresis" format="2">
  <advance width="633"/>
  <unicode hex="0178"/>
  <outline>
    <contour>
      <point x="18" y="707" type="line"/>
      <point x="118" y="707" type="line"/>
      <point x="312" y="379" type="line"/>
      <point x="321" y="379" type="line"/>
      <point x="516" y="707" type="line"/>
      <point x="617" y="707" type="line"/>
      <point x="361" y="290" type="line"/>
      <point x="361" y="0" type="line"/>
      <point x="272" y="0" type="line"/>
      <point x="272" y="290" type="line"/>
    </contour>
    <contour>
      <point x="217" y="795" type="curve" smooth="yes"/>
      <point x="188" y="795"/>
      <point x="161" y="822"/>
      <point x="161" y="851" type="curve" smooth="yes"/>
      <point x="161" y="883"/>
      <point x="188" y="906"/>
      <point x="217" y="906" type="curve" smooth="yes"/>
      <point x="250" y="906"/>
      <point x="273" y="883"/>
      <point x="273" y="851" type="curve" smooth="yes"/>
      <point x="273" y="822"/>
      <point x="250" y="795"/>
    </contour>
    <contour>
      <point x="417" y="795" type="curve" smooth="yes"/>
      <point x="387" y="795"/>
      <point x="360" y="822"/>
      <point x="360" y="851" type="curve" smooth="yes"/>
      <point x="360" y="883"/>
      <point x="387" y="906"/>
      <point x="417" y="906" type="curve" smooth="yes"/>
      <point x="448" y="906"/>
      <point x="473" y="883"/>
      <point x="473" y="851" type="curve" smooth="yes"/>
      <point x="473" y="822"/>
      <point x="448" y="795"/>
    </contour>
  </outline>
</glyph>
<glyph name="Zcaron" format="2">
  <advance width="594"/>
  <unicode hex="017D"/>
  <outline>
    <contour>
      <point x="55" y="0" type="line"/>
      <point x="55" y="63" type="line"/>
      <point x="435" y="629" type="line"/>
      <point x="51" y="629" type="line"/>
      <point x="51" y="707" type="line"/>
      <point x="540" y="707" type="line"/>
      <point x="540" y="644" type="line"/>
      <point x="160" y="78" type="line"/>
      <point x="544" y="78" type="line"/>
      <point x="544" y="0" type="line"/>
    </contour>
    <contour>
      <point x="225" y="920" type="line"/>
      <point x="297" y="824" type="line"/>
      <point x="368" y="920" type="line"/>
      <point x="448" y="920" type="line"/>
      <point x="448" y="914" type="line"/>
      <point x="335" y="771" type="line"/>
      <point x="259" y="771" type="line"/>
      <point x="146" y="914" type="line"/>
      <point x="146" y="920" type="line"/>
    </contour>
  </outline>
</glyph>
<glyph name="zcaron" format="2">
  <advance width="512"/>
  <unicode hex="017E"/>
  <outline>
    <contour>
      <point x="52" y="0" type="line"/>
      <point x="52" y="63" type="line"/>
      <point x="351" y="447" type="line"/>
      <point x="351" y="453" type="line"/>
      <point x="62" y="453" type="line"/>
      <point x="62" y="530" type="line"/>
      <point x="459" y="530" type="line"/>
      <point x="459" y="464" type="line"/>
      <point x="169" y="83" type="line"/>
      <point x="169" y="77" type="line"/>
      <point x="469" y="77" type="line"/>
      <point x="469" y="0" type="line"/>
    </contour>
    <contour>
      <point x="184" y="743" type="line"/>
      <point x="256" y="647" type="line"/>
      <point x="327" y="743" type="line"/>
      <point x="407" y="743" type="line"/>
      <point x="407" y="737" type="line"/>
      <point x="294" y="594" type="line"/>
      <point x="218" y="594" type="line"/>
      <point x="104" y="737" type="line"/>
      <point x="104" y="743" type="line"/>
    </contour>
  </outline>
</glyph>
<glyph name="florin" format="2">
  <advance width="362"/>
  <unicode hex="0192"/>
  <outline>
    <contour>
      <point x="311" y="514" type="line"/>
      <point x="311" y="442" type="line"/>
      <point x="213" y="442" type="line"/>
      <point x="213" y="-34" type="line" smooth="yes"/>
      <point x="213" y="-140"/>
      <point x="159" y="-199"/>
      <point x="61" y="-199" type="curve" smooth="yes"/>
      <point x="41" y="-199"/>
      <point x="25" y="-197"/>
      <point x="6" y="-192" type="curve"/>
      <point x="13" y="-116" type="line"/>
      <point x="23" y="-120"/>
      <point x="52" y="-121"/>
      <point x="61" y="-121" type="curve" smooth="yes"/>
      <point x="98" y="-121"/>
      <point x="125" y="-89"/>
      <point x="125" y="-34" type="curve" smooth="yes"/>
      <point x="125" y="442" type="line"/>
      <point x="39" y="442" type="line"/>
      <point x="39" y="514" type="line"/>
      <point x="125" y="514" type="line"/>
      <point x="125" y="565" type="line" smooth="yes"/>
      <point x="125" y="677"/>
      <point x="187" y="739"/>
      <point x="274" y="739" type="curve" smooth="yes"/>
      <point x="300" y="739"/>
      <point x="337" y="734"/>
      <point x="356" y="727" type="curve"/>
      <point x="336" y="650" type="line"/>
      <point x="326" y="653"/>
      <point x="314" y="656"/>
      <point x="296" y="656" type="curve" smooth="yes"/>
      <point x="242" y="656"/>
      <point x="213" y="626"/>
      <point x="213" y="565" type="curve" smooth="yes"/>
      <point x="213" y="514" type="line"/>
    </contour>
  </outline>
</glyph>
<glyph name="circumflex" format="2">
  <advance width="430"/>
  <unicode hex="02C6"/>
  <outline>
    <contour>
      <point x="287" y="594" type="line"/>
      <point x="215" y="689" type="line"/>
      <point x="144" y="594" type="line"/>
      <point x="63" y="594" type="line"/>
      <point x="63" y="600" type="line"/>
      <point x="177" y="743" type="line"/>
      <point x="253" y="743" type="line"/>
      <point x="366" y="600" type="line"/>
      <point x="366" y="594" type="line"/>
    </contour>
  </outline>
</glyph>
<glyph name="caron" format="2">
  <advance width="430"/>
  <unicode hex="02C7"/>
  <outline>
    <contour>
      <point x="144" y="743" type="line"/>
      <point x="216" y="647" type="line"/>
      <point x="287" y="743" type="line"/>
      <point x="367" y="743" type="line"/>
      <point x="367" y="737" type="line"/>
      <point x="254" y="594" type="line"/>
      <point x="178" y="594" type="line"/>
      <point x="64" y="737" type="line"/>
      <point x="64" y="743" type="line"/>
    </contour>
  </outline>
</glyph>
<glyph name="breve" format="2">
  <advance width="423"/>
  <unicode hex="02D8"/>
  <outline>
    <contour>
      <point x="357" y="707" type="line"/>
      <point x="357" y="633"/>
      <point x="301" y="580"/>
      <point x="212" y="580" type="curve" smooth="yes"/>
      <point x="124" y="580"/>
      <point x="68" y="633"/>
      <point x="68" y="707" type="curve"/>
      <point x="146" y="707" type="line"/>
      <point x="146" y="672"/>
      <point x="164" y="641"/>
      <point x="212" y="641" type="curve" smooth="yes"/>
      <point x="261" y="641"/>
      <point x="279" y="672"/>
      <point x="279" y="707" type="curve"/>
    </contour>
  </outline>
</glyph>
<glyph name="dotaccent" format="2">
  <advance width="218"/>
  <unicode hex="02D9"/>
  <outline>
    <contour>
      <point x="109" y="618" type="curve" smooth="yes"/>
      <point x="77" y="618"/>
      <point x="51" y="643"/>
      <point x="51" y="674" type="curve" smooth="yes"/>
      <point x="51" y="705"/>
      <point x="77" y="729"/>
      <point x="109" y="729" type="curve" smooth="yes"/>
      <point x="141" y="729"/>
      <point x="169" y="705"/>
      <point x="169" y="674" type="curve" smooth="yes"/>
      <point x="169" y="643"/>
      <point x="141" y="618"/>
    </contour>
  </outline>
</glyph>
<glyph name="ring" format="2">
  <advance width="288"/>
  <unicode hex="02DA"/>
  <outline>
    <contour>
      <point x="144" y="590" type="curve" smooth="yes"/>
      <point x="74" y="590"/>
      <point x="19" y="641"/>
      <point x="19" y="707" type="curve" smooth="yes"/>
      <point x="19" y="772"/>
      <point x="74" y="828"/>
      <point x="144" y="828" type="curve" smooth="yes"/>
      <point x="214" y="828"/>
      <point x="268" y="772"/>
      <point x="268" y="707" type="curve" smooth="yes"/>
      <point x="268" y="641"/>
      <point x="214" y="590"/>
    </contour>
    <contour>
      <point x="144" y="643" type="curve" smooth="yes"/>
      <point x="183" y="643"/>
      <point x="209" y="674"/>
      <point x="209" y="707" type="curve" smooth="yes"/>
      <point x="209" y="741"/>
      <point x="183" y="774"/>
      <point x="144" y="774" type="curve" smooth="yes"/>
      <point x="106" y="774"/>
      <point x="78" y="741"/>
      <point x="78" y="707" type="curve" smooth="yes"/>
      <point x="78" y="674"/>
      <point x="106" y="643"/>
    </contour>
  </outline>
</glyph>
<glyph name="ogonek" format="2">
  <advance width="246"/>
  <unicode hex="02DB"/>
  <outline>
    <contour>
      <point x="136" y="-206" type="curve" smooth="yes"/>
      <point x="79" y="-206"/>
      <point x="37" y="-175"/>
      <point x="36" y="-115" type="curve" smooth="yes"/>
      <point x="36" y="-64"/>
      <point x="70" y="-12"/>
      <point x="160" y="29" type="curve"/>
      <point x="200" y="0" type="line"/>
      <point x="159" y="-29"/>
      <point x="121" y="-63"/>
      <point x="121" y="-104" type="curve" smooth="yes"/>
      <point x="121" y="-125"/>
      <point x="129" y="-137"/>
      <point x="157" y="-137" type="curve" smooth="yes"/>
      <point x="177" y="-137"/>
      <point x="193" y="-130"/>
      <point x="203" y="-125" type="curve"/>
      <point x="209" y="-186" type="line"/>
      <point x="194" y="-196"/>
      <point x="169" y="-206"/>
    </contour>
  </outline>
</glyph>
<glyph name="tilde" format="2">
  <advance width="472"/>
  <unicode hex="02DC"/>
  <outline>
    <contour>
      <point x="65" y="597" type="line"/>
      <point x="65" y="668"/>
      <point x="112" y="718"/>
      <point x="171" y="718" type="curve" smooth="yes"/>
      <point x="225" y="718"/>
      <point x="248" y="674"/>
      <point x="297" y="674" type="curve" smooth="yes"/>
      <point x="323" y="674"/>
      <point x="344" y="697"/>
      <point x="344" y="726" type="curve"/>
      <point x="407" y="721" type="line"/>
      <point x="407" y="648"/>
      <point x="361" y="603"/>
      <point x="301" y="603" type="curve" smooth="yes"/>
      <point x="238" y="603"/>
      <point x="228" y="646"/>
      <point x="176" y="646" type="curve" smooth="yes"/>
      <point x="150" y="646"/>
      <point x="131" y="623"/>
      <point x="131" y="594" type="curve"/>
    </contour>
  </outline>
</glyph>
<glyph name="hungarumlaut" format="2">
  <advance width="346"/>
  <unicode hex="02DD"/>
  <outline>
    <contour>
      <point x="182" y="583" type="line"/>
      <point x="288" y="729" type="line"/>
      <point x="381" y="729" type="line"/>
      <point x="255" y="583" type="line"/>
    </contour>
    <contour>
      <point x="38" y="583" type="line"/>
      <point x="116" y="729" type="line"/>
      <point x="207" y="729" type="line"/>
      <point x="104" y="583" type="line"/>
    </contour>
  </outline>
</glyph>
<glyph name="endash" format="2">
  <advance width="470"/>
  <unicode hex="2013"/>
  <outline>
    <contour>
      <point x="479" y="341" type="line"/>
      <point x="479" y="264" type="line"/>
      <point x="-8" y="264" type="line"/>
      <point x="-8" y="341" type="line"/>
    </contour>
  </outline>
</glyph>
<glyph name="emdash" format="2">
  <advance width="957"/>
  <unicode hex="2014"/>
  <outline>
    <contour>
      <point x="965" y="341" type="line"/>
      <point x="965" y="264" type="line"/>
      <point x="-8" y="264" type="line"/>
      <point x="-8" y="341" type="line"/>
    </contour>
  </outline>
</glyph>
<glyph name="quoteleft" format="2">
  <advance width="220"/>
  <unicode hex="2018"/>
  <outline>
    <contour>
      <point x="36" y="441" type="line"/>
      <point x="112" y="707" type="line"/>
      <point x="185" y="707" type="line"/>
      <point x="131" y="441" type="line"/>
    </contour>
  </outline>
</glyph>
<glyph name="quotesinglbase" format="2">
  <advance width="220"/>
  <unicode hex="201A"/>
  <outline>
    <contour>
      <point x="185" y="87" type="line"/>
      <point x="108" y="-179" type="line"/>
      <point x="36" y="-179" type="line"/>
      <point x="90" y="87" type="line"/>
    </contour>
  </outline>
</glyph>
<glyph name="quotedblleft" format="2">
  <advance width="439"/>
  <unicode hex="201C"/>
  <outline>
    <contour>
      <point x="38" y="442" type="line"/>
      <point x="114" y="708" type="line"/>
      <point x="187" y="708" type="line"/>
      <point x="133" y="442" type="line"/>
    </contour>
    <contour>
      <point x="224" y="442" type="line"/>
      <point x="300" y="708" type="line"/>
      <point x="372" y="708" type="line"/>
      <point x="318" y="442" type="line"/>
    </contour>
  </outline>
</glyph>
<glyph name="quotedblbase" format="2">
  <advance width="406"/>
  <unicode hex="201E"/>
  <outline>
    <contour>
      <point x="370" y="65" type="line"/>
      <point x="294" y="-200" type="line"/>
      <point x="222" y="-200" type="line"/>
      <point x="275" y="65" type="line"/>
    </contour>
    <contour>
      <point x="185" y="65" type="line"/>
      <point x="108" y="-200" type="line"/>
      <point x="36" y="-200" type="line"/>
      <point x="90" y="65" type="line"/>
    </contour>
  </outline>
</glyph>
<glyph name="dagger" format="2">
  <advance width="597"/>
  <unicode hex="2020"/>
  <outline>
    <contour>
      <point x="338" y="707" type="line"/>
      <point x="338" y="530" type="line"/>
      <point x="534" y="530" type="line"/>
      <point x="534" y="452" type="line"/>
      <point x="338" y="452" type="line"/>
      <point x="338" y="0" type="line"/>
      <point x="249" y="0" type="line"/>
      <point x="249" y="452" type="line"/>
      <point x="64" y="452" type="line"/>
      <point x="64" y="530" type="line"/>
      <point x="249" y="530" type="line"/>
      <point x="249" y="707" type="line"/>
    </contour>
  </outline>
</glyph>
<glyph name="daggerdbl" format="2">
  <advance width="510"/>
  <unicode hex="2021"/>
  <outline>
    <contour>
      <point x="302" y="692" type="line"/>
      <point x="302" y="514" type="line"/>
      <point x="490" y="514" type="line"/>
      <point x="490" y="437" type="line"/>
      <point x="302" y="437" type="line"/>
      <point x="302" y="77" type="line"/>
      <point x="490" y="77" type="line"/>
      <point x="490" y="0" type="line"/>
      <point x="302" y="0" type="line"/>
      <point x="302" y="-197" type="line"/>
      <point x="206" y="-197" type="line"/>
      <point x="206" y="0" type="line"/>
      <point x="21" y="0" type="line"/>
      <point x="21" y="77" type="line"/>
      <point x="206" y="77" type="line"/>
      <point x="206" y="437" type="line"/>
      <point x="21" y="437" type="line"/>
      <point x="21" y="514" type="line"/>
      <point x="206" y="514" type="line"/>
      <point x="206" y="692" type="line"/>
    </contour>
  </outline>
</glyph>
<glyph name="bullet" format="2">
  <advance width="509"/>
  <unicode hex="2022"/>
  <outline>
    <contour>
      <point x="251" y="182" type="curve" smooth="yes"/>
      <point x="196" y="182"/>
      <point x="151" y="226"/>
      <point x="151" y="282" type="curve" smooth="yes"/>
      <point x="151" y="337"/>
      <point x="196" y="382"/>
      <point x="251" y="382" type="curve" smooth="yes"/>
      <point x="307" y="382"/>
      <point x="352" y="337"/>
      <point x="352" y="282" type="curve" smooth="yes"/>
      <point x="352" y="226"/>
      <point x="307" y="182"/>
    </contour>
  </outline>
</glyph>
<glyph name="perthousand" format="2">
  <advance width="1187"/>
  <unicode hex="2030"/>
  <outline>
    <contour>
      <point x="216" y="379" type="curve" smooth="yes"/>
      <point x="124" y="379"/>
      <point x="74" y="447"/>
      <point x="74" y="549" type="curve" smooth="yes"/>
      <point x="74" y="649"/>
      <point x="126" y="718"/>
      <point x="216" y="718" type="curve" smooth="yes"/>
      <point x="309" y="718"/>
      <point x="357" y="649"/>
      <point x="357" y="549" type="curve" smooth="yes"/>
      <point x="357" y="447"/>
      <point x="307" y="379"/>
    </contour>
    <contour>
      <point x="216" y="439" type="curve" smooth="yes"/>
      <point x="264" y="439"/>
      <point x="286" y="483"/>
      <point x="286" y="549" type="curve" smooth="yes"/>
      <point x="286" y="614"/>
      <point x="266" y="658"/>
      <point x="216" y="657" type="curve" smooth="yes"/>
      <point x="169" y="657"/>
      <point x="146" y="614"/>
      <point x="146" y="549" type="curve" smooth="yes"/>
      <point x="146" y="483"/>
      <point x="169" y="439"/>
    </contour>
    <contour>
      <point x="647" y="-10" type="curve" smooth="yes"/>
      <point x="555" y="-11"/>
      <point x="505" y="58"/>
      <point x="506" y="159" type="curve" smooth="yes"/>
      <point x="505" y="260"/>
      <point x="557" y="329"/>
      <point x="647" y="329" type="curve" smooth="yes"/>
      <point x="739" y="329"/>
      <point x="788" y="260"/>
      <point x="788" y="159" type="curve" smooth="yes"/>
      <point x="788" y="58"/>
      <point x="737" y="-11"/>
    </contour>
    <contour>
      <point x="647" y="51" type="curve" smooth="yes"/>
      <point x="694" y="51"/>
      <point x="717" y="94"/>
      <point x="717" y="159" type="curve" smooth="yes"/>
      <point x="717" y="225"/>
      <point x="696" y="270"/>
      <point x="647" y="269" type="curve" smooth="yes"/>
      <point x="600" y="268"/>
      <point x="576" y="225"/>
      <point x="576" y="159" type="curve" smooth="yes"/>
      <point x="576" y="94"/>
      <point x="599" y="51"/>
    </contour>
    <contour>
      <point x="972" y="-11" type="curve" smooth="yes"/>
      <point x="880" y="-11"/>
      <point x="829" y="58"/>
      <point x="829" y="159" type="curve" smooth="yes"/>
      <point x="829" y="259"/>
      <point x="882" y="328"/>
      <point x="972" y="329" type="curve" smooth="yes"/>
      <point x="1065" y="328"/>
      <point x="1112" y="259"/>
      <point x="1112" y="159" type="curve" smooth="yes"/>
      <point x="1112" y="58"/>
      <point x="1063" y="-11"/>
    </contour>
    <contour>
      <point x="972" y="51" type="curve" smooth="yes"/>
      <point x="1020" y="50"/>
      <point x="1041" y="93"/>
      <point x="1041" y="159" type="curve" smooth="yes"/>
      <point x="1041" y="225"/>
      <point x="1021" y="269"/>
      <point x="972" y="268" type="curve" smooth="yes"/>
      <point x="926" y="268"/>
      <point x="901" y="225"/>
      <point x="901" y="159" type="curve" smooth="yes"/>
      <point x="901" y="93"/>
      <point x="924" y="50"/>
    </contour>
    <contour>
      <point x="144" y="0" type="line"/>
      <point x="630" y="707" type="line"/>
      <point x="709" y="707" type="line"/>
      <point x="223" y="0" type="line"/>
    </contour>
  </outline>
</glyph>
<glyph name="guilsinglleft" format="2">
  <advance width="334"/>
  <unicode hex="2039"/>
  <outline>
    <contour>
      <point x="271" y="76" type="line"/>
      <point x="197" y="76" type="line"/>
      <point x="58" y="283" type="line"/>
      <point x="58" y="293" type="line"/>
      <point x="197" y="500" type="line"/>
      <point x="271" y="500" type="line"/>
      <point x="139" y="288" type="line"/>
    </contour>
  </outline>
</glyph>
<glyph name="guilsinglright" format="2">
  <advance width="335"/>
  <unicode hex="203A"/>
  <outline>
    <contour>
      <point x="58" y="76" type="line"/>
      <point x="188" y="288" type="line"/>
      <point x="58" y="500" type="line"/>
      <point x="132" y="500" type="line"/>
      <point x="271" y="293" type="line"/>
      <point x="271" y="283" type="line"/>
      <point x="132" y="76" type="line"/>
    </contour>
  </outline>
</glyph>
<glyph name="fraction" format="2">
  <advance width="250"/>
  <unicode hex="2044"/>
  <outline>
    <contour>
      <point x="-157" y="0" type="line"/>
      <point x="329" y="707" type="line"/>
      <point x="408" y="707" type="line"/>
      <point x="-78" y="0" type="line"/>
    </contour>
  </outline>
</glyph>
<glyph name="Euro" format="2">
  <advance width="632"/>
  <unicode hex="20AC"/>
  <outline>
    <contour>
      <point x="500" y="457" type="line"/>
      <point x="468" y="388" type="line"/>
      <point x="189" y="388" type="line"/>
      <point x="189" y="377"/>
      <point x="188" y="366"/>
      <point x="188" y="354" type="curve" smooth="yes"/>
      <point x="188" y="342"/>
      <point x="189" y="330"/>
      <point x="189" y="319" type="curve"/>
      <point x="440" y="319" type="line"/>
      <point x="408" y="250" type="line"/>
      <point x="200" y="250" type="line"/>
      <point x="227" y="134"/>
      <point x="302" y="72"/>
      <point x="395" y="72" type="curve" smooth="yes"/>
      <point x="456" y="72"/>
      <point x="506" y="99"/>
      <point x="545" y="133" type="curve"/>
      <point x="581" y="60" type="line"/>
      <point x="532" y="14"/>
      <point x="465" y="-10"/>
      <point x="395" y="-10" type="curve" smooth="yes"/>
      <point x="252" y="-10"/>
      <point x="144" y="87"/>
      <point x="112" y="250" type="curve"/>
      <point x="18" y="250" type="line"/>
      <point x="42" y="319" type="line"/>
      <point x="104" y="319" type="line"/>
      <point x="103" y="354" type="line"/>
      <point x="104" y="388" type="line"/>
      <point x="18" y="388" type="line"/>
      <point x="42" y="457" type="line"/>
      <point x="112" y="457" type="line"/>
      <point x="144" y="620"/>
      <point x="252" y="717"/>
      <point x="395" y="717" type="curve" smooth="yes"/>
      <point x="468" y="717"/>
      <point x="532" y="691"/>
      <point x="582" y="645" type="curve"/>
      <point x="548" y="570" type="line"/>
      <point x="504" y="609"/>
      <point x="455" y="635"/>
      <point x="395" y="635" type="curve" smooth="yes"/>
      <point x="302" y="635"/>
      <point x="227" y="573"/>
      <point x="200" y="457" type="curve"/>
    </contour>
  </outline>
</glyph>
<glyph name="trademark" format="2">
  <advance width="577"/>
  <unicode hex="2122"/>
  <outline>
    <contour>
      <point x="396" y="453" type="line"/>
      <point x="319" y="627" type="line"/>
      <point x="319" y="453" type="line"/>
      <point x="274" y="453" type="line"/>
      <point x="274" y="707" type="line"/>
      <point x="330" y="707" type="line"/>
      <point x="408" y="521" type="line"/>
      <point x="486" y="707" type="line"/>
      <point x="541" y="707" type="line"/>
      <point x="541" y="453" type="line"/>
      <point x="496" y="453" type="line"/>
      <point x="496" y="626" type="line"/>
      <point x="420" y="453" type="line"/>
    </contour>
    <contour>
      <point x="108" y="453" type="line"/>
      <point x="108" y="668" type="line"/>
      <point x="31" y="668" type="line"/>
      <point x="31" y="707" type="line"/>
      <point x="230" y="707" type="line"/>
      <point x="230" y="668" type="line"/>
      <point x="153" y="668" type="line"/>
      <point x="153" y="453" type="line"/>
    </contour>
  </outline>
</glyph>
<glyph name="fi" format="2">
  <advance width="553"/>
  <unicode hex="FBD1"/>
  <outline>
    <contour>
      <point x="403" y="0" type="line"/>
      <point x="403" y="530" type="line"/>
      <point x="487" y="530" type="line"/>
      <point x="487" y="0" type="line"/>
    </contour>
    <contour>
      <point x="445" y="618" type="curve" smooth="yes"/>
      <point x="413" y="618"/>
      <point x="387" y="643"/>
      <point x="387" y="674" type="curve" smooth="yes"/>
      <point x="387" y="705"/>
      <point x="413" y="729"/>
      <point x="445" y="729" type="curve" smooth="yes"/>
      <point x="477" y="729"/>
      <point x="505" y="705"/>
      <point x="505" y="674" type="curve" smooth="yes"/>
      <point x="505" y="643"/>
      <point x="477" y="618"/>
    </contour>
    <contour>
      <point x="305" y="530" type="line"/>
      <point x="305" y="460" type="line"/>
      <point x="188" y="460" type="line"/>
      <point x="188" y="0" type="line"/>
      <point x="103" y="0" type="line"/>
      <point x="103" y="460" type="line"/>
      <point x="18" y="460" type="line"/>
      <point x="18" y="530" type="line"/>
      <point x="103" y="530" type="line"/>
      <point x="103" y="603" type="line" smooth="yes"/>
      <point x="103" y="689"/>
      <point x="160" y="740"/>
      <point x="254" y="740" type="curve" smooth="yes"/>
      <point x="275" y="740"/>
      <point x="298" y="737"/>
      <point x="316" y="734" type="curve"/>
      <point x="316" y="659" type="line"/>
      <point x="298" y="662"/>
      <point x="283" y="663"/>
      <point x="272" y="663" type="curve" smooth="yes"/>
      <point x="213" y="663"/>
      <point x="188" y="639"/>
      <point x="188" y="584" type="curve" smooth="yes"/>
      <point x="188" y="530" type="line"/>
    </contour>
  </outline>
</glyph>
<glyph name=".notdef" format="2">
  <advance width="1000"/>
  <outline>
    <contour>
      <point x="74" y="839" type="line"/>
      <point x="74" y="928" type="line"/>
      <point x="926" y="928" type="line"/>
      <point x="926" y="839" type="line"/>
    </contour>
    <contour>
      <point x="74" y="-221" type="line"/>
      <point x="74" y="-131" type="line"/>
      <point x="926" y="-131" type="line"/>
      <point x="926" y="-221" type="line"/>
    </contour>
    <contour>
      <point x="74" y="-9" type="line"/>
      <point x="74" y="81" type="line"/>
      <point x="926" y="81" type="line"/>
      <point x="926" y="-9" type="line"/>
    </contour>
    <contour>
      <point x="74" y="202" type="line"/>
      <point x="74" y="292" type="line"/>
      <point x="926" y="292" type="line"/>
      <point x="926" y="202" type="line"/>
    </contour>
    <contour>
      <point x="74" y="415" type="line"/>
      <point x="74" y="505" type="line"/>
      <point x="926" y="505" type="line"/>
      <point x="926" y="415" type="line"/>
    </contour>
    <contour>
      <point x="74" y="626" type="line"/>
      <point x="74" y="716" type="line"/>
      <point x="926" y="716" type="line"/>
      <point x="926" y="626" type="line"/>
    </contour>
  </outline>
</glyph>
